<svg width="26" height="26" viewBox="0 0 26 26" fill="none" xmlns="http://www.w3.org/2000/svg">
<path d="M2.75736 2.75736L3.46447 3.46447L3.46447 3.46447L2.75736 2.75736ZM23.2426 2.75736L22.5355 3.46445L22.5355 3.46448L23.2426 2.75736ZM1.65396 9.07608L2.54497 9.53007L2.54497 9.53007L1.65396 9.07608ZM4.27606 6.45399L4.73005 7.345L4.73005 7.34499L4.27606 6.45399ZM21.724 6.45399L22.178 5.56298L22.178 5.56298L21.724 6.45399ZM24.346 9.07608L23.455 9.53002L23.455 9.53009L24.346 9.07608ZM24.346 21.724L23.455 21.27L23.455 21.2701L24.346 21.724ZM21.724 24.346L21.2701 23.455L21.27 23.455L21.724 24.346ZM4.27606 24.346L4.73007 23.455L4.73 23.455L4.27606 24.346ZM1.65396 21.724L0.762952 22.178L0.762957 22.178L1.65396 21.724ZM14 11.8C14 11.2477 13.5523 10.8 13 10.8C12.4477 10.8 12 11.2477 12 11.8H14ZM13 19L12.2929 19.7071C12.6834 20.0976 13.3166 20.0976 13.7071 19.7071L13 19ZM16.7071 16.7071C17.0976 16.3166 17.0976 15.6834 16.7071 15.2929C16.3166 14.9024 15.6834 14.9024 15.2929 15.2929L16.7071 16.7071ZM10.7071 15.2929C10.3166 14.9024 9.68342 14.9024 9.29289 15.2929C8.90237 15.6834 8.90237 16.3166 9.29289 16.7071L10.7071 15.2929ZM1 13H2C2 10.1433 2.00212 8.10137 2.21075 6.54961C2.41551 5.02662 2.80256 4.12638 3.46447 3.46447L2.75736 2.75736L2.05026 2.05025C0.954807 3.1457 0.463167 4.53834 0.228588 6.28311C-0.00212383 7.99911 0 10.1998 0 13H1ZM2.75736 2.75736L3.46447 3.46447C4.12638 2.80256 5.02662 2.41551 6.54961 2.21075C8.10138 2.00212 10.1433 2 13 2V1V0C10.1998 0 7.99912 -0.00212383 6.28312 0.228587C4.53835 0.463166 3.1457 0.954805 2.05026 2.05026L2.75736 2.75736ZM13 1V2C15.8567 2 17.8986 2.00212 19.4504 2.21075C20.9734 2.41552 21.8736 2.80256 22.5355 3.46445L23.2426 2.75736L23.9497 2.05027C22.8543 0.954803 21.4616 0.463165 19.7169 0.228587C18.0009 -0.00212371 15.8001 0 13 0V1ZM23.2426 2.75736L22.5355 3.46448C23.1974 4.12638 23.5845 5.02662 23.7892 6.54961C23.9979 8.10137 24 10.1433 24 13H25H26C26 10.1998 26.0021 7.99911 25.7714 6.28311C25.5368 4.53834 25.0452 3.14569 23.9497 2.05024L23.2426 2.75736ZM1 15.4H2C2 13.7033 2.00078 12.491 2.07842 11.5406C2.15512 10.602 2.30179 10.0073 2.54497 9.53007L1.65396 9.07608L0.762958 8.62209C0.352176 9.42829 0.171865 10.3154 0.0850667 11.3778C-0.000777721 12.4285 0 13.7363 0 15.4H1ZM1.65396 9.07608L2.54497 9.53007C3.02433 8.58926 3.78924 7.82436 4.73005 7.345L4.27606 6.45399L3.82208 5.56298C2.50494 6.23408 1.43406 7.30496 0.762955 8.6221L1.65396 9.07608ZM4.27606 6.45399L4.73005 7.34499C5.20732 7.10181 5.80198 6.95514 6.74065 6.87845C7.69099 6.8008 8.90334 6.80002 10.6 6.80002V5.80002V4.80002C8.93635 4.80002 7.62846 4.79925 6.57778 4.88509C5.51543 4.97189 4.62827 5.1522 3.82207 5.56298L4.27606 6.45399ZM10.6 5.80002V6.80002H15.4V5.80002V4.80002H10.6V5.80002ZM15.4 5.80002V6.80002C17.0967 6.80002 18.309 6.8008 19.2594 6.87845C20.1981 6.95514 20.7927 7.10181 21.27 7.345L21.724 6.45399L22.178 5.56298C21.3718 5.1522 20.4846 4.97189 19.4222 4.88509C18.3716 4.79925 17.0637 4.80002 15.4 4.80002V5.80002ZM21.724 6.45399L21.27 7.345C22.2108 7.82435 22.9757 8.58925 23.455 9.53002L24.346 9.07608L25.237 8.62214C24.566 7.30497 23.4951 6.23409 22.178 5.56298L21.724 6.45399ZM24.346 9.07608L23.455 9.53009C23.6982 10.0074 23.8449 10.602 23.9216 11.5407C23.9992 12.491 24 13.7033 24 15.4H25H26C26 13.7363 26.0008 12.4285 25.9149 11.3778C25.8281 10.3154 25.6478 9.42828 25.237 8.62207L24.346 9.07608ZM25 15.4H24C24 17.0967 23.9992 18.309 23.9216 19.2594C23.8449 20.1981 23.6982 20.7927 23.455 21.27L24.346 21.724L25.237 22.178C25.6478 21.3718 25.8281 20.4846 25.9149 19.4223C26.0008 18.3716 26 17.0637 26 15.4H25ZM24.346 21.724L23.455 21.2701C22.9757 22.2108 22.2108 22.9757 21.2701 23.455L21.724 24.346L22.1779 25.237C23.4951 24.566 24.566 23.4951 25.237 22.1779L24.346 21.724ZM21.724 24.346L21.27 23.455C20.7927 23.6982 20.198 23.8449 19.2594 23.9216C18.309 23.9992 17.0967 24 15.4 24V25V26C17.0637 26 18.3716 26.0008 19.4223 25.9149C20.4846 25.8281 21.3718 25.6478 22.178 25.237L21.724 24.346ZM15.4 25V24H10.6V25V26H15.4V25ZM10.6 25V24C8.90334 24 7.69099 23.9992 6.74065 23.9216C5.80198 23.8449 5.20733 23.6982 4.73007 23.455L4.27606 24.346L3.82205 25.237C4.62826 25.6478 5.51542 25.8281 6.57778 25.9149C7.62846 26.0008 8.93635 26 10.6 26V25ZM4.27606 24.346L4.73 23.455C3.78923 22.9757 3.02433 22.2108 2.54497 21.27L1.65396 21.724L0.762957 22.178C1.43406 23.4951 2.50495 24.566 3.82212 25.237L4.27606 24.346ZM1.65396 21.724L2.54498 21.27C2.30179 20.7927 2.15512 20.1981 2.07842 19.2594C2.00078 18.309 2 17.0967 2 15.4H1H0C0 17.0637 -0.000777721 18.3716 0.0850666 19.4223C0.171865 20.4846 0.352176 21.3718 0.762952 22.178L1.65396 21.724ZM13 11.8H12V19H13H14V11.8H13ZM13 19L13.7071 19.7071L16.7071 16.7071L16 16L15.2929 15.2929L12.2929 18.2929L13 19ZM13 19L13.7071 18.2929L10.7071 15.2929L10 16L9.29289 16.7071L12.2929 19.7071L13 19Z" fill="white"/>
</svg>
