<svg width="12" height="18" viewBox="0 0 12 18" fill="none" xmlns="http://www.w3.org/2000/svg">
<path d="M3.49996 17H8.49987M5.99992 1C3.23854 1 1 3.38781 1 6.33333C1 7.41289 1.3007 8.41751 1.81763 9.25716C2.61253 10.5483 3.00964 11.1934 3.06123 11.2899C3.52019 12.1476 3.43568 11.8451 3.49345 12.8308C3.49994 12.9415 3.49996 13.1092 3.49996 13.4444C3.49996 13.9354 3.87305 14.3333 4.33328 14.3333H7.66656C8.1268 14.3333 8.49987 13.9354 8.49987 13.4444C8.49987 13.1092 8.49987 12.9415 8.50637 12.8308C8.56412 11.8451 8.47913 12.1476 8.93812 11.2899C8.9897 11.1934 9.38744 10.5483 10.1823 9.25716C10.6993 8.41751 11 7.41289 11 6.33333C11 3.38781 8.76129 1 5.99992 1Z" stroke="white" stroke-width="2" stroke-linecap="round" stroke-linejoin="round"/>
</svg>
