<svg width="16" height="16" viewBox="0 0 16 16" fill="none" xmlns="http://www.w3.org/2000/svg">
<path d="M10.8175 2.9423L13.039 5.14262M1 15L1.03727 14.7416C1.16915 13.8273 1.23509 13.3701 1.38508 12.9432C1.51818 12.5645 1.69999 12.2043 1.92605 11.8716C2.1808 11.4967 2.5105 11.1701 3.1699 10.517L12.3184 1.4557C12.9319 0.8481 13.9265 0.8481 14.5399 1.4557C15.1534 2.0633 15.1534 3.04841 14.5399 3.65601L5.22353 12.8836C4.62532 13.4761 4.32621 13.7724 3.98552 14.0079C3.68312 14.217 3.35698 14.3903 3.01379 14.5241C2.62715 14.6748 2.21249 14.7577 1.38323 14.9234L1 15Z" stroke="white" stroke-linecap="round" stroke-linejoin="round"/>
</svg>
