<svg width="26" height="26" viewBox="0 0 26 26" fill="none" xmlns="http://www.w3.org/2000/svg">
<path d="M11.6826 0.0146484C17.5537 0.312042 22.2227 5.16639 22.2227 11.1113L22.208 11.6826C22.0821 14.1678 21.1367 16.4351 19.6406 18.2266L25.708 24.293L25.7764 24.3682C26.097 24.7609 26.0742 25.3418 25.708 25.708C25.3418 26.0742 24.7609 26.097 24.3682 25.7764L24.293 25.708L18.2266 19.6406C16.2987 21.2507 13.8195 22.2226 11.1113 22.2227L10.5391 22.208C4.85765 21.9198 0.302443 17.3641 0.0146484 11.6826L0 11.1113C0 4.97476 4.97476 0 11.1113 0L11.6826 0.0146484ZM11.1113 2C6.07933 2 2 6.07933 2 11.1113C2.00005 16.1433 6.07935 20.2227 11.1113 20.2227C16.1433 20.2226 20.2226 16.1433 20.2227 11.1113C20.2227 6.07936 16.1433 2.00004 11.1113 2Z" fill="white"/>
</svg>
