<svg width="28" height="28" viewBox="0 0 28 28" fill="none" xmlns="http://www.w3.org/2000/svg">
<path d="M14.0006 17.9005C11.7161 17.9005 9.86411 16.1544 9.86411 14.0005C9.86411 11.8466 11.7161 10.1005 14.0006 10.1005C16.2852 10.1005 18.1371 11.8466 18.1371 14.0005C18.1371 16.1544 16.2852 17.9005 14.0006 17.9005Z" stroke="white" stroke-width="2"/>
<path d="M11.5666 1.19837C12.0735 1.00046 12.7159 1.00046 14.0008 1.00046C15.2858 1.00046 15.9282 1.00046 16.4351 1.19837C17.1107 1.46226 17.6476 1.96841 17.9275 2.60548C18.0552 2.8963 18.1052 3.23451 18.1248 3.72784C18.1536 4.45284 18.5479 5.12391 19.2143 5.48667C19.8807 5.84941 20.6943 5.83586 21.3746 5.49685C21.8376 5.26615 22.1732 5.13786 22.5042 5.09678C23.2294 5.00677 23.9627 5.19204 24.543 5.61182C24.9782 5.92665 25.2994 6.45123 25.9418 7.50037C26.5843 8.54952 26.9055 9.07408 26.9771 9.58684C27.0726 10.2705 26.8761 10.9619 26.4308 11.509C26.2276 11.7587 25.942 11.9686 25.4987 12.2312C24.8471 12.6173 24.4278 13.2749 24.4278 14.0005C24.4279 14.726 24.8471 15.3835 25.4987 15.7695C25.9421 16.0322 26.2277 16.2422 26.431 16.4919C26.8762 17.0389 27.0727 17.7303 26.9772 18.414C26.9057 18.9267 26.5844 19.4514 25.942 20.5005C25.2995 21.5496 24.9783 22.0742 24.5431 22.389C23.9629 22.8087 23.2295 22.994 22.5044 22.904C22.1734 22.8629 21.8377 22.7346 21.3748 22.504C20.6945 22.165 19.8808 22.1515 19.2144 22.5142C18.5479 22.877 18.1536 23.548 18.1248 24.2732C18.1052 24.7664 18.0552 25.1047 17.9275 25.3955C17.6476 26.0325 17.1107 26.5387 16.4351 26.8026C15.9282 27.0005 15.2858 27.0005 14.0008 27.0005C12.7159 27.0005 12.0735 27.0005 11.5666 26.8026C10.891 26.5387 10.3541 26.0325 10.0743 25.3955C9.9465 25.1047 9.89645 24.7664 9.87687 24.2731C9.84819 23.548 9.45384 22.877 8.78745 22.5142C8.12106 22.1513 7.3074 22.165 6.62694 22.504C6.16407 22.7346 5.82846 22.8628 5.49754 22.9039C4.7724 22.994 4.039 22.8087 3.45878 22.389C3.02362 22.0741 2.70235 21.5496 2.05995 20.5003C1.41741 19.4512 1.09614 18.9267 1.02458 18.414C0.929162 17.7303 1.12565 17.0388 1.57087 16.4918C1.77412 16.242 2.05981 16.0321 2.50311 15.7695C3.15461 15.3835 3.57392 14.7259 3.57392 14.0003C3.57392 13.2748 3.15461 12.6174 2.50311 12.2314C2.05967 11.9687 1.77398 11.7589 1.57074 11.509C1.12551 10.962 0.929023 10.2706 1.02444 9.58692C1.096 9.07417 1.41727 8.5496 2.05981 7.50046C2.70221 6.45132 3.02348 5.92674 3.45864 5.61191C4.03886 5.19213 4.77227 5.00686 5.4974 5.09687C5.82832 5.13795 6.16393 5.26623 6.62694 5.4969C7.30726 5.83592 8.12092 5.84948 8.78731 5.48671C9.45384 5.12394 9.84819 4.45282 9.87687 3.72778C9.89645 3.23448 9.9465 2.89629 10.0743 2.60548C10.3541 1.96841 10.891 1.46226 11.5666 1.19837Z" stroke="white" stroke-width="2"/>
</svg>
