<svg width="29" height="24" viewBox="0 0 29 24" fill="none" xmlns="http://www.w3.org/2000/svg">
<path d="M24.2061 1.00488L24.2314 0.505343L24.2179 0.505023L24.2061 1.00488ZM28 5H28.5H28ZM28 19L28.5 19.0118V19H28ZM27.9951 19.2061L28.4947 19.2314L28.495 19.2179L27.9951 19.2061ZM24.2061 22.9951L24.2179 23.4952L24.2314 23.4945L24.2061 22.9951ZM24 23V23.5001L24.0118 23.4999L24 23ZM5 23L4.98815 23.5H5V23ZM4.79395 22.9951L4.7686 23.4947L4.7821 23.495L4.79395 22.9951ZM1.00488 19.2061L0.504841 19.2179L0.505525 19.2314L1.00488 19.2061ZM1 19H0.49986L0.50014 19.0118L1 19ZM1 5H0.5H1ZM4.79395 1.00488L4.7821 0.504841L4.76861 0.505525L4.79395 1.00488ZM5 1V0.49986L4.98815 0.50014L5 1ZM24 1L24.0118 0.5H24V1ZM5 2V1.5V2ZM2 5H1.5H2ZM2 19H1.5H2ZM11 22V22.5H11.5V22H11ZM11 2H11.5V1.5H11V2ZM12 22H11.5V22.5H12V22ZM24 22V22.5V22ZM27 19H27.5H27ZM27 5H27.5H27ZM12 2V1.5H11.5V2H12ZM7.85059 15.1768L7.95076 14.6869L7.92504 14.6816L7.8989 14.6791L7.85059 15.1768ZM8.25 15.667L8.75 15.6673V15.667H8.25ZM7.85059 16.1572L7.8989 16.6549L7.92504 16.6523L7.95076 16.6471L7.85059 16.1572ZM7.75 16.167V16.667H7.77421L7.79832 16.6647L7.75 16.167ZM5.0498 16.167L5.04963 16.667H5.0498V16.167ZM4.5498 15.667H4.0498V15.6673L4.5498 15.667ZM5.0498 15.167V14.667H5.04963L5.0498 15.167ZM7.75 15.167L7.79832 14.6693L7.77421 14.667H7.75V15.167ZM7.85059 10.7764L7.95076 10.2865L7.92504 10.2812L7.8989 10.2787L7.85059 10.7764ZM8.25 11.2666H8.75V11.2665L8.25 11.2666ZM7.85059 11.7568L7.8989 12.2545L7.92504 12.252L7.95076 12.2467L7.85059 11.7568ZM7.75 11.7666V12.2666H7.77421L7.79832 12.2643L7.75 11.7666ZM5.0498 11.7666L5.04963 12.2666H5.0498V11.7666ZM4.5498 11.2666L4.0498 11.2665V11.2666H4.5498ZM5.0498 10.7666V10.2666H5.04963L5.0498 10.7666ZM7.75 10.7666L7.79832 10.2689L7.77421 10.2666H7.75V10.7666ZM7.85059 6.37598L7.95076 5.88611L7.92504 5.88085L7.8989 5.87832L7.85059 6.37598ZM8.25 6.86621H8.75V6.86576L8.25 6.86621ZM7.85059 7.35645L7.8989 7.85411L7.92504 7.85157L7.95076 7.84631L7.85059 7.35645ZM7.75 7.36621V7.86621H7.77421L7.79832 7.86387L7.75 7.36621ZM5.0498 7.36621L5.04963 7.86621H5.0498V7.36621ZM4.5498 6.86621L4.0498 6.86576V6.86621H4.5498ZM5.0498 6.36621V5.86621H5.04963L5.0498 6.36621ZM7.75 6.36621L7.79832 5.86855L7.77421 5.86621H7.75V6.36621ZM24.2061 1.00488L24.1807 1.50424C26.0295 1.59804 27.5 3.12756 27.5 5H28H28.5C28.5 2.59236 26.6094 0.626185 24.2314 0.505525L24.2061 1.00488ZM28 5H27.5V19H28H28.5V5H28ZM28 19L27.5001 18.9882L27.4953 19.1942L27.9951 19.2061L28.495 19.2179L28.4999 19.0118L28 19ZM27.9951 19.2061L27.4958 19.1807C27.405 20.9696 25.9696 22.405 24.1807 22.4958L24.2061 22.9951L24.2314 23.4945C26.5328 23.3777 28.3777 21.5328 28.4945 19.2314L27.9951 19.2061ZM24.2061 22.9951L24.1942 22.4953L23.9882 22.5001L24 23L24.0118 23.4999L24.2179 23.495L24.2061 22.9951ZM24 23V22.5H5V23V23.5H24V23ZM5 23L5.01185 22.5001L4.80579 22.4953L4.79395 22.9951L4.7821 23.495L4.98815 23.4999L5 23ZM4.79395 22.9951L4.81928 22.4958C3.03035 22.405 1.59501 20.9696 1.50424 19.1807L1.00488 19.2061L0.505525 19.2314C0.622295 21.5328 2.46725 23.3777 4.76861 23.4945L4.79395 22.9951ZM1.00488 19.2061L1.50474 19.1942L1.49986 18.9882L1 19L0.50014 19.0118L0.505023 19.2179L1.00488 19.2061ZM1 19H1.5V5H1H0.5V19H1ZM1 5H1.5C1.5 3.12756 2.97054 1.59804 4.81928 1.50424L4.79395 1.00488L4.76861 0.505525C2.39058 0.626185 0.5 2.59236 0.5 5H1ZM4.79395 1.00488L4.80579 1.50474L5.01185 1.49986L5 1L4.98815 0.50014L4.7821 0.505023L4.79395 1.00488ZM5 1V1.5H24V1V0.5H5V1ZM24 1L23.9882 1.49986L24.1942 1.50474L24.2061 1.00488L24.2179 0.505023L24.0118 0.50014L24 1ZM5 2V1.5C3.067 1.5 1.5 3.067 1.5 5H2H2.5C2.5 3.61929 3.61929 2.5 5 2.5V2ZM2 5H1.5V19H2H2.5V5H2ZM2 19H1.5C1.5 20.933 3.067 22.5 5 22.5V22V21.5C3.61929 21.5 2.5 20.3807 2.5 19H2ZM5 22V22.5H11V22V21.5H5V22ZM11 22H11.5V2H11H10.5V22H11ZM11 2V1.5H5V2V2.5H11V2ZM12 22V22.5H24V22V21.5H12V22ZM24 22V22.5C25.933 22.5 27.5 20.933 27.5 19H27H26.5C26.5 20.3807 25.3807 21.5 24 21.5V22ZM27 19H27.5V5H27H26.5V19H27ZM27 5H27.5C27.5 3.067 25.933 1.5 24 1.5V2V2.5C25.3807 2.5 26.5 3.61929 26.5 5H27ZM24 2V1.5H12V2V2.5H24V2ZM12 2H11.5V22H12H12.5V2H12ZM7.85059 15.1768L7.75041 15.6666L7.75 15.667H8.25H8.75C8.75 15.1834 8.40699 14.7802 7.95076 14.6869L7.85059 15.1768ZM8.25 15.667L7.75 15.6667L7.75041 15.6674L7.85059 16.1572L7.95076 16.6471C8.40717 16.5538 8.74971 16.1502 8.75 15.6673L8.25 15.667ZM7.85059 16.1572L7.80227 15.6596L7.70168 15.6693L7.75 16.167L7.79832 16.6647L7.8989 16.6549L7.85059 16.1572ZM7.75 16.167V15.667H5.0498V16.167V16.667H7.75V16.167ZM5.0498 16.167L5.04998 15.667L5.0498 15.6667L4.5498 15.667L4.0498 15.6673C4.05013 16.219 4.49754 16.6668 5.04963 16.667L5.0498 16.167ZM4.5498 15.667H5.0498H5.04998L5.0498 15.167L5.04963 14.667C4.49774 14.6672 4.0498 15.1146 4.0498 15.667H4.5498ZM5.0498 15.167V15.667H7.75V15.167V14.667H5.0498V15.167ZM7.75 15.167L7.70168 15.6647L7.80227 15.6744L7.85059 15.1768L7.8989 14.6791L7.79832 14.6693L7.75 15.167ZM7.85059 10.7764L7.75041 11.2662L7.75 11.2667L8.25 11.2666L8.75 11.2665C8.74988 10.7831 8.40706 10.3798 7.95076 10.2865L7.85059 10.7764ZM8.25 11.2666H7.75L7.75041 11.267L7.85059 11.7568L7.95076 12.2467C8.40699 12.1534 8.75 11.7502 8.75 11.2666H8.25ZM7.85059 11.7568L7.80227 11.2592L7.70168 11.2689L7.75 11.7666L7.79832 12.2643L7.8989 12.2545L7.85059 11.7568ZM7.75 11.7666V11.2666H5.0498V11.7666V12.2666H7.75V11.7666ZM5.0498 11.7666L5.04998 11.2666H5.0498H4.5498H4.0498C4.0498 11.819 4.49774 12.2664 5.04963 12.2666L5.0498 11.7666ZM4.5498 11.2666L5.0498 11.2667L5.04998 11.2666L5.0498 10.7666L5.04963 10.2666C4.49766 10.2668 4.04994 10.7143 4.0498 11.2665L4.5498 11.2666ZM5.0498 10.7666V11.2666H7.75V10.7666V10.2666H5.0498V10.7666ZM7.75 10.7666L7.70168 11.2643L7.80227 11.274L7.85059 10.7764L7.8989 10.2787L7.79832 10.2689L7.75 10.7666ZM7.85059 6.37598L7.75041 6.86584L7.75 6.86666L8.25 6.86621L8.75 6.86576C8.74957 6.38312 8.40726 5.97947 7.95076 5.88611L7.85059 6.37598ZM8.25 6.86621H7.75L7.75041 6.86658L7.85059 7.35645L7.95076 7.84631C8.40699 7.75301 8.75 7.3498 8.75 6.86621H8.25ZM7.85059 7.35645L7.80227 6.85879L7.70168 6.86855L7.75 7.36621L7.79832 7.86387L7.8989 7.85411L7.85059 7.35645ZM7.75 7.36621V6.86621H5.0498V7.36621V7.86621H7.75V7.36621ZM5.0498 7.36621L5.04998 6.86621H5.0498H4.5498H4.0498C4.0498 7.41861 4.49774 7.86602 5.04963 7.86621L5.0498 7.36621ZM4.5498 6.86621L5.0498 6.86666L5.04998 6.86621L5.0498 6.36621L5.04963 5.86621C4.49745 5.86641 4.0503 6.31437 4.0498 6.86576L4.5498 6.86621ZM5.0498 6.36621V6.86621H7.75V6.36621V5.86621H5.0498V6.36621ZM7.75 6.36621L7.70168 6.86387L7.80227 6.87364L7.85059 6.37598L7.8989 5.87832L7.79832 5.86855L7.75 6.36621Z" fill="white"/>
</svg>
