<svg xmlns="http://www.w3.org/2000/svg" width="32" height="32" fill="none"><g fill="#fff" clip-path="url(#a)"><path d="M23 8a2 2 0 0 1 2 2v12a2 2 0 0 1-1.796 1.99L23 24H9l-.204-.01A2 2 0 0 1 7 22V10a2 2 0 0 1 2-2h14ZM9 9a1 1 0 0 0-1 1v12a1 1 0 0 0 1 1h4.5V9H9Zm5.5 14H23a1 1 0 0 0 1-1V10a1 1 0 0 0-1-1h-8.5v14ZM11 18.5a.5.5 0 0 1 0 1h-1a.5.5 0 0 1 0-1h1Zm0-3a.5.5 0 0 1 0 1h-1a.5.5 0 0 1 0-1h1Zm0-3a.5.5 0 0 1 0 1h-1a.5.5 0 0 1 0-1h1Z"/><path d="M25 22h.5-.5Zm-1.796 1.99.026.499.012-.001.012-.001-.05-.498ZM23 24v.5h.026L23 24ZM9 24l-.026.5H9V24Zm-.204-.01-.05.497h.011l.013.002.026-.5ZM7 22h-.5.5Zm0-12h-.5.5Zm2-2v-.5.5Zm0 1v-.5.5Zm-1 1h-.5.5Zm0 12h-.5.5Zm5.5 1v.5h.5V23h-.5Zm0-14h.5v-.5h-.5V9Zm1 14H14v.5h.5V23Zm8.5 0v.5-.5Zm1-1h.5-.5ZM14.5 9v-.5H14V9h.5ZM23 8v.5a1.5 1.5 0 0 1 1.5 1.5h1A2.5 2.5 0 0 0 23 7.5V8Zm2 2h-.5v12h1V10H25Zm0 12h-.5a1.5 1.5 0 0 1-1.346 1.492l.05.497.05.498A2.5 2.5 0 0 0 25.5 22H25Zm-1.796 1.99-.026-.5-.204.01.026.5.026.5.204-.011-.026-.5ZM23 24v-.5H9v1h14V24ZM9 24l.026-.5-.204-.01-.026.5-.026.499.204.01L9 24Zm-.204-.01.05-.498A1.5 1.5 0 0 1 7.5 22h-1a2.5 2.5 0 0 0 2.245 2.487l.05-.498ZM7 22h.5V10h-1v12H7Zm0-12h.5A1.5 1.5 0 0 1 9 8.5v-1A2.5 2.5 0 0 0 6.5 10H7Zm2-2v.5h14v-1H9V8Zm0 1v-.5A1.5 1.5 0 0 0 7.5 10h1a.5.5 0 0 1 .5-.5V9Zm-1 1h-.5v12h1V10H8Zm0 12h-.5A1.5 1.5 0 0 0 9 23.5v-1a.5.5 0 0 1-.5-.5H8Zm1 1v.5h4.5v-1H9v.5Zm4.5 0h.5V9h-1v14h.5Zm0-14v-.5H9v1h4.5V9Zm1 14v.5H23v-1h-8.5v.5Zm8.5 0v.5a1.5 1.5 0 0 0 1.5-1.5h-1a.5.5 0 0 1-.5.5v.5Zm1-1h.5V10h-1v12h.5Zm0-12h.5A1.5 1.5 0 0 0 23 8.5v1a.5.5 0 0 1 .5.5h.5Zm-1-1v-.5h-8.5v1H23V9Zm-8.5 0H14v14h1V9h-.5ZM11 18.5v.5h1a1 1 0 0 0-1-1v.5Zm.5.5H11v1a1 1 0 0 0 1-1h-.5Zm-.5.5V19h-1v1h1v-.5Zm-1 0V19H9a1 1 0 0 0 1 1v-.5Zm-.5-.5h.5v-1a1 1 0 0 0-1 1h.5Zm.5-.5v.5h1v-1h-1v.5Zm1-3v.5h1a1 1 0 0 0-1-1v.5Zm.5.5H11v1a1 1 0 0 0 1-1h-.5Zm-.5.5V16h-1v1h1v-.5Zm-1 0V16H9a1 1 0 0 0 1 1v-.5Zm-.5-.5h.5v-1a1 1 0 0 0-1 1h.5Zm.5-.5v.5h1v-1h-1v.5Zm1-3v.5h1a1 1 0 0 0-1-1v.5Zm.5.5H11v1a1 1 0 0 0 1-1h-.5Zm-.5.5V13h-1v1h1v-.5Zm-1 0V13H9a1 1 0 0 0 1 1v-.5Zm-.5-.5h.5v-1a1 1 0 0 0-1 1h.5Zm.5-.5v.5h1v-1h-1v.5Z"/></g><defs><clipPath id="a"><path fill="#fff" d="M0 0h32v32H0z"/></clipPath></defs></svg>