<svg xmlns="http://www.w3.org/2000/svg" width="32" height="32" fill="none"><g clip-path="url(#a)"><path fill="#fff" d="M6.5 24.5v-15c0-.55.196-1.02.588-1.412A1.926 1.926 0 0 1 8.5 7.5h12c.55 0 1.02.196 1.413.588.391.391.587.862.587 1.412v5.075a3.416 3.416 0 0 0-.5-.063 10.051 10.051 0 0 0-1 0c-.167.009-.333.03-.5.063V9.5h-12v10h7.075a3.416 3.416 0 0 0-.063.5 10.051 10.051 0 0 0 0 1c.009.167.03.333.063.5H9.5l-3 3Zm4-11h8v-2h-8v2Zm0 4h5v-2h-5v2Zm10 7v-3h-3v-2h3v-3h2v3h3v2h-3v3h-2Z"/></g><defs><clipPath id="a"><path fill="#fff" d="M0 0h32v32H0z"/></clipPath></defs></svg>