<svg width="21" height="16" viewBox="0 0 21 16" fill="none" xmlns="http://www.w3.org/2000/svg">
<mask id="path-1-inside-1_306_306" fill="white">
<path fill-rule="evenodd" clip-rule="evenodd" d="M6.5 6.00092C6.5 3.79178 8.29086 2.00092 10.5 2.00092C12.7091 2.00092 14.5 3.79178 14.5 6.00092V7.00092H15.5C17.433 7.00092 19 8.56792 19 10.5009C19 12.4339 17.433 14.0009 15.5 14.0009H15.4C14.8477 14.0009 14.4 14.4486 14.4 15.0009C14.4 15.5532 14.8477 16.0009 15.4 16.0009H15.5C18.5376 16.0009 21 13.5385 21 10.5009C21 7.78022 19.0245 5.52089 16.4296 5.07916C15.9862 2.20305 13.5003 0.000915527 10.5 0.000915527C7.49974 0.000915527 5.01381 2.20305 4.57036 5.07916C1.97551 5.52089 0 7.78022 0 10.5009C0 13.5385 2.46243 16.0009 5.5 16.0009H5.6C6.15228 16.0009 6.6 15.5532 6.6 15.0009C6.6 14.4486 6.15228 14.0009 5.6 14.0009H5.5C3.567 14.0009 2 12.4339 2 10.5009C2 8.56792 3.567 7.00092 5.5 7.00092H6.5V6.00092ZM11.5 7.00092C11.5 6.44862 11.0523 6.00092 10.5 6.00092C9.9477 6.00092 9.5 6.44862 9.5 7.00092V12.5867L8.20711 11.2938C7.81658 10.9033 7.18342 10.9033 6.79289 11.2938C6.40237 11.6843 6.40237 12.3175 6.79289 12.708L9.7929 15.708C10.1834 16.0985 10.8166 16.0985 11.2071 15.708L14.2071 12.708C14.5976 12.3175 14.5976 11.6843 14.2071 11.2938C13.8166 10.9033 13.1834 10.9033 12.7929 11.2938L11.5 12.5867V7.00092Z"/>
</mask>
<path fill-rule="evenodd" clip-rule="evenodd" d="M6.5 6.00092C6.5 3.79178 8.29086 2.00092 10.5 2.00092C12.7091 2.00092 14.5 3.79178 14.5 6.00092V7.00092H15.5C17.433 7.00092 19 8.56792 19 10.5009C19 12.4339 17.433 14.0009 15.5 14.0009H15.4C14.8477 14.0009 14.4 14.4486 14.4 15.0009C14.4 15.5532 14.8477 16.0009 15.4 16.0009H15.5C18.5376 16.0009 21 13.5385 21 10.5009C21 7.78022 19.0245 5.52089 16.4296 5.07916C15.9862 2.20305 13.5003 0.000915527 10.5 0.000915527C7.49974 0.000915527 5.01381 2.20305 4.57036 5.07916C1.97551 5.52089 0 7.78022 0 10.5009C0 13.5385 2.46243 16.0009 5.5 16.0009H5.6C6.15228 16.0009 6.6 15.5532 6.6 15.0009C6.6 14.4486 6.15228 14.0009 5.6 14.0009H5.5C3.567 14.0009 2 12.4339 2 10.5009C2 8.56792 3.567 7.00092 5.5 7.00092H6.5V6.00092ZM11.5 7.00092C11.5 6.44862 11.0523 6.00092 10.5 6.00092C9.9477 6.00092 9.5 6.44862 9.5 7.00092V12.5867L8.20711 11.2938C7.81658 10.9033 7.18342 10.9033 6.79289 11.2938C6.40237 11.6843 6.40237 12.3175 6.79289 12.708L9.7929 15.708C10.1834 16.0985 10.8166 16.0985 11.2071 15.708L14.2071 12.708C14.5976 12.3175 14.5976 11.6843 14.2071 11.2938C13.8166 10.9033 13.1834 10.9033 12.7929 11.2938L11.5 12.5867V7.00092Z" stroke="white" stroke-width="4" mask="url(#path-1-inside-1_306_306)"/>
</svg>
