<svg width="32" height="32" viewBox="0 0 32 32" fill="none" xmlns="http://www.w3.org/2000/svg">
<path d="M17.3857 18.5869L14.1856 21.7861C14.1866 21.8232 14.1875 21.8604 14.1875 21.8974C14.1875 22.4228 14.0879 22.9462 13.8896 23.4365C13.6894 23.9248 13.3945 24.3837 12.9912 24.7842L10.8867 26.8916C10.4834 27.294 10.0263 27.5889 9.53613 27.7881C9.04494 27.9874 8.52244 28.0869 7.99806 28.0869C7.47463 28.0869 6.95119 27.9873 6.46094 27.79C5.97069 27.5889 5.51369 27.2939 5.10938 26.8916C4.707 26.4892 4.41212 26.0322 4.21287 25.542C4.01362 25.0517 3.91406 24.5283 3.91406 24.0029C3.91406 23.4795 4.01369 22.956 4.21287 22.4658C4.41206 21.9755 4.707 21.5185 5.10938 21.1142L7.21681 19.0087C7.61919 18.6084 8.07519 18.3115 8.56644 18.1122C9.05569 17.913 9.58012 17.8134 10.1036 17.8134C10.1407 17.8134 10.1778 17.8154 10.2139 17.8174L13.4141 14.6152C13.3145 14.5694 13.2139 14.5264 13.1114 14.4854C12.1475 14.0947 11.1251 13.8994 10.1036 13.8994C9.08206 13.8994 8.05862 14.0947 7.09575 14.4854C6.13187 14.876 5.22662 15.4659 4.44831 16.2412L2.34281 18.3487C1.56544 19.124 0.976625 20.0303 0.586 20.9952C0.195375 21.96 0 22.9814 0 24.0029C0 25.0243 0.195312 26.0478 0.585938 27.0126C0.976562 27.9755 1.56544 28.8817 2.34275 29.6572C3.11913 30.4365 4.02538 31.0263 4.98925 31.415C5.95413 31.8075 6.97656 32.0009 7.99806 32.0009C9.0205 32.0009 10.043 31.8075 11.0069 31.415C11.9708 31.0263 12.877 30.4365 13.6534 29.6572L15.7598 27.5537C16.5362 26.7744 17.1251 25.87 17.5166 24.9072C17.9082 23.9404 18.1016 22.9189 18.1026 21.8974C18.1016 20.8779 17.9082 19.8544 17.5166 18.8877C17.4746 18.788 17.4307 18.6865 17.3857 18.5869Z" fill="white"/>
<path d="M31.4141 4.99117C31.0234 4.02629 30.4346 3.12004 29.6572 2.34373C28.8809 1.56735 27.9746 0.977541 27.0098 0.586916C26.0459 0.196228 25.0234 0.000915527 24.0019 0.000915527C22.9804 0.000915527 21.957 0.196228 20.9931 0.586853C20.0293 0.977478 19.123 1.56735 18.3466 2.34367L16.2402 4.4501C15.4639 5.22554 14.875 6.13179 14.4834 7.0966C14.0917 8.05948 13.8984 9.08292 13.8984 10.1054C13.8984 11.1269 14.0918 12.1494 14.4834 13.1142C14.5254 13.2158 14.5683 13.3154 14.6143 13.416L17.8144 10.2158C17.8134 10.1797 17.8125 10.1435 17.8125 10.1054C17.8125 9.58098 17.9121 9.0566 18.1113 8.56735C18.3106 8.0771 18.6054 7.6201 19.0088 7.21579L21.1133 5.11029C21.5166 4.70992 21.9736 4.41398 22.4648 4.21379C22.9531 4.01654 23.4775 3.91498 24.0019 3.91498C24.5273 3.91498 25.0488 4.01654 25.541 4.21379C26.0293 4.41398 26.4873 4.70992 26.8906 5.11029C27.293 5.5146 27.5879 5.9716 27.7871 6.46185C27.9844 6.9521 28.0859 7.47554 28.0859 7.99898C28.0859 8.52342 27.9844 9.04585 27.7871 9.53804C27.5879 10.0283 27.293 10.4853 26.8906 10.8877L24.7851 12.9932C24.3828 13.3955 23.9248 13.6904 23.4336 13.8897C22.9443 14.0889 22.4209 14.1885 21.8964 14.1885C21.8593 14.1885 21.8222 14.1875 21.7861 14.1865L18.5859 17.3877C18.6855 17.4327 18.7861 17.4766 18.8867 17.5167C19.8525 17.9092 20.875 18.1045 21.8964 18.1045C22.9179 18.1045 23.9414 17.9092 24.9042 17.5167C25.8681 17.126 26.7734 16.5372 27.5517 15.7608L29.6572 13.6544C30.4346 12.878 31.0234 11.9717 31.414 11.0069C31.8046 10.044 31.9999 9.0206 31.9999 7.9991C31.9999 6.9776 31.8047 5.95404 31.4141 4.99117Z" fill="white"/>
<path d="M10.0137 21.9872C10.7783 22.7529 12.0176 22.7529 12.7812 21.9872L21.9863 12.7822C22.75 12.0185 22.7519 10.7802 21.9863 10.0146C21.2217 9.25092 19.9824 9.25092 19.2188 10.0146L10.0137 19.2216C9.25 19.9853 9.25 21.2236 10.0137 21.9872Z" fill="white"/>
</svg>
