<svg width="16" height="16" viewBox="0 0 16 16" fill="none" xmlns="http://www.w3.org/2000/svg">
<rect width="16" height="16" rx="4" fill="black"/>
<mask id="path-2-inside-1_371_241" fill="white">
<path d="M14.8531 7.91749C14.7809 7.79111 14.684 7.68059 14.5683 7.59252C14.4526 7.50446 14.3204 7.44065 14.1796 7.4049C13.7569 7.29941 13.3212 7.25596 12.886 7.27591C12.9729 6.58188 12.9094 5.87721 12.6998 5.21004C12.6168 4.95204 12.4411 4.73414 12.2069 4.59859C11.9727 4.46304 11.6966 4.4195 11.4322 4.4764C10.978 4.57613 10.5412 4.74333 10.1363 4.97248C9.77493 4.28782 9.26967 3.68991 8.6554 3.22C8.46645 3.07722 8.23625 2.99999 7.99963 3C7.76301 3.00001 7.53282 3.07725 7.34388 3.22005C6.72961 3.68994 6.22435 4.28783 5.86298 4.97248C5.45813 4.74336 5.02141 4.57615 4.56727 4.4764C4.30282 4.41943 4.02669 4.46294 3.79243 4.5985C3.55818 4.73405 3.38249 4.95199 3.29945 5.21004C3.08985 5.87721 3.02635 6.58188 3.11328 7.27591C2.67812 7.25599 2.24238 7.29944 1.81966 7.4049C1.67904 7.44114 1.54705 7.50514 1.43141 7.59316C1.31577 7.68118 1.21882 7.79144 1.14622 7.91749C1.07363 8.04353 1.02685 8.18283 1.00863 8.32723C0.990408 8.47162 1.00111 8.61821 1.04011 8.75841C1.24259 9.48423 1.85992 10.8625 3.71921 11.9386C5.54986 12.9981 7.13913 12.9998 7.99526 12.9998C7.99652 12.9998 7.99775 13 7.999 13L7.99964 13L8.00028 13C8.00154 13 8.00277 12.9998 8.00402 12.9998C8.86012 12.9998 10.4494 12.9981 12.2801 11.9386C14.1394 10.8625 14.7567 9.48423 14.9592 8.75846C14.9987 8.61832 15.0097 8.47164 14.9914 8.32716C14.9732 8.18267 14.9262 8.04335 14.8531 7.91749ZM11.5078 5.81267C11.6221 6.26785 11.6897 6.96848 11.4335 7.84152C11.4281 7.8578 11.4232 7.87423 11.419 7.89094C11.2949 8.28968 11.126 8.67298 10.9155 9.03347C10.8475 9.15165 10.7757 9.26562 10.7014 9.3763C10.7974 8.9092 10.845 8.43338 10.8433 7.95646C10.8463 7.36771 10.772 6.78113 10.6224 6.2118C10.8977 6.03831 11.1957 5.90398 11.5078 5.81267ZM7.99964 4.3764C8.54522 4.82898 9.53086 5.92793 9.53086 7.95646C9.53086 10.0083 8.52984 11.1035 7.99964 11.5396C7.46944 11.1035 6.46842 10.0083 6.46842 7.95646C6.46842 5.92777 7.45411 4.82887 7.99964 4.3764ZM4.49149 5.81267C4.80362 5.90399 5.10159 6.03831 5.37686 6.2118C5.22724 6.78113 5.15297 7.36771 5.15595 7.95646C5.15429 8.43338 5.20186 8.9092 5.2979 9.3763C5.22362 9.26562 5.15179 9.15165 5.08375 9.03347C4.87325 8.67296 4.70434 8.28963 4.58025 7.89086C4.57611 7.87423 4.57123 7.85788 4.56581 7.84168C4.30962 6.96854 4.37723 6.26785 4.49149 5.81267ZM2.37787 8.6303C2.73065 8.57399 3.08995 8.57222 3.44326 8.62506C3.58117 8.99396 3.7497 9.35063 3.94708 9.6913C4.24998 10.2128 4.61342 10.6965 5.02981 11.1323C4.80585 11.0332 4.58741 10.922 4.37544 10.7992C3.10513 10.064 2.58786 9.19407 2.37787 8.6303ZM11.6238 10.7992C11.4128 10.9215 11.1953 11.0322 10.9724 11.1311C11.3878 10.6956 11.7503 10.2123 12.0522 9.6913C12.2496 9.35061 12.4181 8.99393 12.556 8.625C12.9094 8.57214 13.2687 8.57392 13.6214 8.6303C13.4114 9.19407 12.8942 10.064 11.6238 10.7992Z"/>
</mask>
<path d="M14.8531 7.91749L10.5113 10.3973L10.5202 10.4129L10.5293 10.4284L14.8531 7.91749ZM14.1796 7.4049L15.4098 2.55861L15.4 2.55612L15.3902 2.55367L14.1796 7.4049ZM12.886 7.27591L7.92477 6.65453L7.18734 12.5423L13.1149 12.2707L12.886 7.27591ZM12.6998 5.21004L17.4699 3.71139L17.4647 3.69461L17.4593 3.67787L12.6998 5.21004ZM11.4322 4.4764L10.3803 -0.411701L10.3701 -0.409503L10.3599 -0.407264L11.4322 4.4764ZM10.1363 4.97248L5.71447 7.30645L8.11794 11.8599L12.599 9.32394L10.1363 4.97248ZM8.6554 3.22L11.6934 -0.751248L11.6816 -0.760221L11.6698 -0.769125L8.6554 3.22ZM7.34388 3.22005L4.3291 -0.768818L4.31756 -0.760094L4.30607 -0.751304L7.34388 3.22005ZM5.86298 4.97248L3.40031 9.32395L7.88138 11.86L10.2848 7.30642L5.86298 4.97248ZM4.56727 4.4764L5.63999 -0.407174L5.63013 -0.409338L5.62027 -0.411463L4.56727 4.4764ZM3.29945 5.21004L-1.46016 3.67833L-1.46549 3.69489L-1.4707 3.71148L3.29945 5.21004ZM3.11328 7.27591L2.88468 12.2707L8.81193 12.5419L8.07451 6.6545L3.11328 7.27591ZM1.81966 7.4049L0.609386 2.55358L0.590529 2.55829L0.571709 2.56314L1.81966 7.4049ZM1.04011 8.75841L-3.777 10.0984L-3.77599 10.102L1.04011 8.75841ZM3.71921 11.9386L1.2146 16.2661L1.21475 16.2662L3.71921 11.9386ZM7.999 13V18H8.10338L8.20766 17.9956L7.999 13ZM7.99964 13L8.20844 8.00433L7.99971 7.99561L7.79098 8.00433L7.99964 13ZM8.00028 13L7.79149 17.9956L7.89584 18H8.00028V13ZM12.2801 11.9386L14.7845 16.2662L14.7847 16.2661L12.2801 11.9386ZM14.9592 8.75846L10.1469 7.4012L10.1431 7.41481L14.9592 8.75846ZM11.5078 5.81267L16.3573 4.59533L15.092 -0.445389L10.104 1.0138L11.5078 5.81267ZM11.4335 7.84152L16.1773 9.42151L16.2058 9.33585L16.2313 9.24921L11.4335 7.84152ZM11.419 7.89094L16.1932 9.37675L16.237 9.23605L16.2724 9.09303L11.419 7.89094ZM10.9155 9.03347L6.59769 6.51233L6.58998 6.52552L6.58236 6.53877L10.9155 9.03347ZM10.7014 9.3763L5.80383 8.36935L14.853 12.1627L10.7014 9.3763ZM10.8433 7.95646L5.8434 7.9311L5.84329 7.95249L5.84336 7.97387L10.8433 7.95646ZM10.6224 6.2118L7.95643 1.98185L4.85475 3.93674L5.78663 7.48266L10.6224 6.2118ZM7.99964 4.3764L11.1919 0.528116L7.99986 -2.11983L4.80761 0.527898L7.99964 4.3764ZM7.99964 11.5396L4.82347 15.4012L7.99964 18.0136L11.1758 15.4012L7.99964 11.5396ZM4.49149 5.81267L5.89539 1.01381L0.907292 -0.445446L-0.358053 4.59533L4.49149 5.81267ZM5.37686 6.2118L10.2127 7.48266L11.1445 3.9367L8.04281 1.98182L5.37686 6.2118ZM5.15595 7.95646L10.1559 7.97386L10.156 7.95248L10.1559 7.9311L5.15595 7.95646ZM5.2979 9.3763L1.14631 12.1628L10.1955 8.36934L5.2979 9.3763ZM5.08375 9.03347L9.41694 6.53878L9.40931 6.52553L9.4016 6.51233L5.08375 9.03347ZM4.58025 7.89086L-0.271582 9.09904L-0.236768 9.23885L-0.19396 9.37642L4.58025 7.89086ZM4.56581 7.84168L-0.231947 9.24936L-0.205413 9.3398L-0.17549 9.42917L4.56581 7.84168ZM2.37787 8.6303L1.58969 3.69282L-4.43835 4.65508L-2.30767 10.3755L2.37787 8.6303ZM3.44326 8.62506L8.12671 6.87424L7.09545 4.11563L4.18278 3.68005L3.44326 8.62506ZM3.94708 9.6913L-0.379234 12.1979L-0.376552 12.2025L3.94708 9.6913ZM5.02981 11.1323L3.00588 15.7044L8.64501 7.67831L5.02981 11.1323ZM4.37544 10.7992L6.88177 6.47273L6.87998 6.47169L4.37544 10.7992ZM11.6238 10.7992L9.1193 6.47169L9.11759 6.47269L11.6238 10.7992ZM10.9724 11.1311L7.35451 7.6798L12.9984 15.7022L10.9724 11.1311ZM12.0522 9.6913L16.3782 12.1985L16.3785 12.1979L12.0522 9.6913ZM12.556 8.625L11.8161 3.68005L8.90373 4.11583L7.87259 6.87423L12.556 8.625ZM13.6214 8.6303L18.3069 10.3755L20.4372 4.65613L14.4105 3.69296L13.6214 8.6303ZM14.8531 7.91749L19.1948 5.43769C18.7901 4.72919 18.2468 4.10876 17.5966 3.61388L14.5683 7.59252L11.5401 11.5712C11.1213 11.2524 10.7716 10.853 10.5113 10.3973L14.8531 7.91749ZM14.5683 7.59252L17.5966 3.61388C16.9464 3.11898 16.2027 2.75989 15.4098 2.55861L14.1796 7.4049L12.9494 12.2512C12.4381 12.1214 11.9589 11.8899 11.5401 11.5712L14.5683 7.59252ZM14.1796 7.4049L15.3902 2.55367C14.4972 2.33082 13.5766 2.23901 12.6571 2.28115L12.886 7.27591L13.1149 12.2707C13.0658 12.2729 13.0166 12.268 12.969 12.2561L14.1796 7.4049ZM12.886 7.27591L17.8472 7.89728C18.0234 6.49118 17.8947 5.06345 17.4699 3.71139L12.6998 5.21004L7.92969 6.70869C7.92412 6.69097 7.92251 6.67257 7.92477 6.65453L12.886 7.27591ZM12.6998 5.21004L17.4593 3.67787C16.9974 2.24306 16.0194 1.02808 14.7114 0.271076L12.2069 4.59859L9.70236 8.92611C8.86277 8.4402 8.23613 7.66101 7.94035 6.74221L12.6998 5.21004ZM12.2069 4.59859L14.7114 0.271076C13.4031 -0.486118 11.8593 -0.729981 10.3803 -0.411701L11.4322 4.4764L12.4841 9.3645C11.5339 9.56898 10.5423 9.41221 9.70236 8.92611L12.2069 4.59859ZM11.4322 4.4764L10.3599 -0.407264C9.41802 -0.200463 8.51262 0.146198 7.67363 0.621013L10.1363 4.97248L12.599 9.32394C12.5698 9.34047 12.5379 9.35272 12.5045 9.36006L11.4322 4.4764ZM10.1363 4.97248L14.5581 2.63851C13.8596 1.31512 12.8825 0.158407 11.6934 -0.751248L8.6554 3.22L5.61744 7.19125C5.65687 7.22141 5.69023 7.26052 5.71447 7.30645L10.1363 4.97248ZM8.6554 3.22L11.6698 -0.769125C10.6136 -1.56729 9.32519 -2.00006 7.99942 -2L7.99963 3L7.99984 8C7.14731 8.00004 6.31929 7.72172 5.64095 7.20912L8.6554 3.22ZM7.99963 3L7.99942 -2C6.67365 -1.99994 5.38528 -1.56707 4.3291 -0.768818L7.34388 3.22005L10.3587 7.20893C9.68036 7.72158 8.85236 7.99996 7.99984 8L7.99963 3ZM7.34388 3.22005L4.30607 -0.751304C3.11688 0.158343 2.13967 1.31509 1.44113 2.63854L5.86298 4.97248L10.2848 7.30642C10.309 7.26057 10.3423 7.22153 10.3817 7.19141L7.34388 3.22005ZM5.86298 4.97248L8.32564 0.621006C7.48683 0.14629 6.58162 -0.200336 5.63999 -0.407174L4.56727 4.4764L3.49456 9.35997C3.46119 9.35264 3.42943 9.34043 3.40031 9.32395L5.86298 4.97248ZM4.56727 4.4764L5.62027 -0.411463C4.14098 -0.730148 2.59687 -0.486455 1.28819 0.270819L3.79243 4.5985L6.29668 8.92617C5.45652 9.41233 4.46467 9.56901 3.51427 9.36426L4.56727 4.4764ZM3.79243 4.5985L1.28819 0.270819C-0.0201448 1.0279 -0.998312 2.24317 -1.46016 3.67833L3.29945 5.21004L8.05906 6.74174C7.76329 7.6608 7.1365 8.4402 6.29668 8.92617L3.79243 4.5985ZM3.29945 5.21004L-1.4707 3.71148C-1.89546 5.06353 -2.02407 6.49124 -1.84796 7.89731L3.11328 7.27591L8.07451 6.6545C8.07677 6.67251 8.07516 6.6909 8.06959 6.7086L3.29945 5.21004ZM3.11328 7.27591L3.34187 2.28113C2.4226 2.23906 1.50217 2.33086 0.609386 2.55358L1.81966 7.4049L3.02993 12.2562C2.98258 12.268 2.93363 12.2729 2.88468 12.2707L3.11328 7.27591ZM1.81966 7.4049L0.571709 2.56314C-0.214435 2.76576 -0.951655 3.12342 -1.59693 3.61458L1.43141 7.59316L4.45975 11.5717C4.04575 11.8869 3.57251 12.1165 3.0676 12.2467L1.81966 7.4049ZM1.43141 7.59316L-1.59693 3.61458C-2.24218 4.10571 -2.7824 4.72036 -3.18654 5.42206L1.14622 7.91749L5.47899 10.4129C5.22004 10.8625 4.87373 11.2566 4.45975 11.5717L1.43141 7.59316ZM1.14622 7.91749L-3.18654 5.42206C-3.59066 6.12372 -3.85074 6.89858 -3.95203 7.70124L1.00863 8.32723L5.96929 8.95321C5.90444 9.46708 5.73792 9.96334 5.47899 10.4129L1.14622 7.91749ZM1.00863 8.32723L-3.95203 7.70124C-4.05332 8.5039 -3.99385 9.31879 -3.77699 10.0984L1.04011 8.75841L5.85721 7.41844C5.99607 7.91763 6.03413 8.43935 5.96929 8.95321L1.00863 8.32723ZM1.04011 8.75841L-3.77599 10.102C-3.28887 11.8481 -1.97274 14.4214 1.2146 16.2661L3.71921 11.9386L6.22381 7.61116C6.05804 7.51522 5.95678 7.43419 5.89986 7.38268C5.84285 7.33108 5.81711 7.29711 5.81 7.28728C5.79688 7.26914 5.82437 7.3007 5.85621 7.41485L1.04011 8.75841ZM3.71921 11.9386L1.21475 16.2662C4.22539 18.0085 6.92074 17.9998 7.99526 17.9998V12.9998V7.99984C7.59937 7.99984 7.37339 7.99362 7.11432 7.94667C6.8763 7.90353 6.57948 7.817 6.22367 7.61108L3.71921 11.9386ZM7.99526 12.9998V17.9998C7.94229 17.9998 7.89514 17.999 7.85517 17.9979C7.81531 17.9967 7.78114 17.9953 7.75461 17.994C7.72831 17.9928 7.70709 17.9915 7.69427 17.9907C7.68772 17.9903 7.68244 17.99 7.67928 17.9898C7.6764 17.9896 7.67394 17.9895 7.67444 17.9895C7.67444 17.9895 7.67449 17.9895 7.67454 17.9895C7.6746 17.9895 7.6747 17.9895 7.67481 17.9895C7.67503 17.9895 7.67539 17.9896 7.67582 17.9896C7.67667 17.9896 7.67805 17.9897 7.67974 17.9898C7.68306 17.99 7.6885 17.9904 7.6952 17.9908C7.70833 17.9916 7.72987 17.9928 7.75647 17.9941C7.78332 17.9954 7.8178 17.9969 7.85797 17.998C7.89825 17.9992 7.94571 18 7.999 18V13V8C8.05198 8 8.09913 8.00085 8.1391 8.00197C8.17895 8.00309 8.21312 8.00453 8.23966 8.00582C8.26595 8.00709 8.28718 8.00833 8.3 8.0091C8.30654 8.0095 8.31182 8.00983 8.31499 8.01003C8.31787 8.01022 8.32033 8.01038 8.31983 8.01034C8.31983 8.01034 8.31978 8.01034 8.31972 8.01034C8.31966 8.01033 8.31957 8.01033 8.31945 8.01032C8.31923 8.01031 8.31888 8.01028 8.31844 8.01025C8.31759 8.0102 8.31622 8.01011 8.31452 8.01C8.3112 8.00979 8.30577 8.00945 8.29907 8.00904C8.28594 8.00825 8.2644 8.00699 8.23779 8.0057C8.21095 8.00441 8.17647 8.00295 8.1363 8.00182C8.09602 8.00069 8.04855 7.99984 7.99526 7.99984V12.9998ZM7.999 13L8.20766 17.9956L8.2083 17.9956L7.99964 13L7.79098 8.00433L7.79034 8.00436L7.999 13ZM7.99964 13L7.79085 17.9956L7.79149 17.9956L8.00028 13L8.20908 8.00436L8.20844 8.00433L7.99964 13ZM8.00028 13V18C8.05347 18 8.10087 17.9992 8.14115 17.998C8.18132 17.9969 8.21582 17.9954 8.24271 17.9941C8.26937 17.9929 8.29095 17.9916 8.30414 17.9908C8.31087 17.9904 8.31632 17.99 8.31966 17.9898C8.32137 17.9897 8.32276 17.9896 8.32362 17.9896C8.32405 17.9895 8.32441 17.9895 8.32464 17.9895C8.32475 17.9895 8.32485 17.9895 8.32491 17.9895C8.32497 17.9895 8.32502 17.9895 8.32503 17.9895C8.32555 17.9895 8.32309 17.9896 8.32022 17.9898C8.31706 17.99 8.31178 17.9903 8.30524 17.9907C8.29241 17.9915 8.27117 17.9927 8.24484 17.994C8.21828 17.9953 8.18407 17.9967 8.14418 17.9979C8.10417 17.999 8.057 17.9998 8.00402 17.9998V12.9998V7.99984C7.95073 7.99984 7.90325 8.00069 7.86293 8.00182C7.82272 8.00296 7.7882 8.00441 7.76133 8.00571C7.73469 8.007 7.71313 8.00826 7.7 8.00906C7.6933 8.00946 7.68787 8.00981 7.68456 8.01002C7.68286 8.01012 7.68149 8.01021 7.68065 8.01027C7.68021 8.01029 7.67986 8.01032 7.67965 8.01033C7.67953 8.01034 7.67944 8.01034 7.67938 8.01035C7.67933 8.01035 7.67928 8.01036 7.67928 8.01036C7.6788 8.01039 7.68127 8.01023 7.68418 8.01004C7.68736 8.00984 7.69266 8.0095 7.69923 8.00911C7.71211 8.00833 7.73339 8.00708 7.75973 8.00581C7.78631 8.00453 7.8205 8.00308 7.86036 8.00197C7.90033 8.00084 7.94741 8 8.00028 8V13ZM8.00402 12.9998V17.9998C9.07851 17.9998 11.7739 18.0085 14.7845 16.2662L12.2801 11.9386L9.77562 7.61108C9.41981 7.81699 9.12299 7.90353 8.88496 7.94667C8.62588 7.99362 8.3999 7.99984 8.00402 7.99984V12.9998ZM12.2801 11.9386L14.7847 16.2661C17.972 14.4214 19.2881 11.8481 19.7753 10.1021L14.9592 8.75846L10.1431 7.41481C10.1749 7.30066 10.2024 7.26911 10.1893 7.28726C10.1822 7.2971 10.1564 7.33107 10.0994 7.38268C10.0425 7.43419 9.94124 7.51522 9.77547 7.61116L12.2801 11.9386ZM14.9592 8.75846L19.7714 10.1157C19.9928 9.33103 20.0542 8.50994 19.9521 7.70121L14.9914 8.32716L10.0308 8.9531C9.9652 8.43334 10.0047 7.90561 10.1469 7.40121L14.9592 8.75846ZM14.9914 8.32716L19.9521 7.70121C19.8501 6.89248 19.5866 6.11209 19.1769 5.40658L14.8531 7.91749L10.5293 10.4284C10.2657 9.97461 10.0964 9.47287 10.0308 8.9531L14.9914 8.32716ZM11.5078 5.81267L6.65825 7.03001C6.62442 6.89527 6.6093 6.77052 6.60957 6.65817C6.60986 6.54209 6.62666 6.46485 6.63576 6.43383L11.4335 7.84152L16.2313 9.24921C16.7708 7.41047 16.6585 5.79503 16.3573 4.59533L11.5078 5.81267ZM11.4335 7.84152L6.68971 6.26154C6.65214 6.37434 6.60774 6.51908 6.56569 6.68884L11.419 7.89094L16.2724 9.09303C16.2386 9.22939 16.204 9.34126 16.1773 9.42151L11.4335 7.84152ZM11.419 7.89094L6.6449 6.40512C6.63319 6.44275 6.61731 6.47871 6.59769 6.51233L10.9155 9.03347L15.2334 11.5546C15.6347 10.8673 15.9567 10.1366 16.1932 9.37675L11.419 7.89094ZM10.9155 9.03347L6.58236 6.53877C6.57982 6.54317 6.57026 6.55937 6.54976 6.58991L10.7014 9.3763L14.853 12.1627C14.9811 11.9719 15.1152 11.7601 15.2487 11.5282L10.9155 9.03347ZM10.7014 9.3763L15.5989 10.3833C15.7643 9.5791 15.8462 8.76001 15.8433 7.93905L10.8433 7.95646L5.84336 7.97387C5.84383 8.10676 5.83057 8.2393 5.80383 8.36935L10.7014 9.3763ZM10.8433 7.95646L15.8433 7.98182C15.8485 6.95575 15.719 5.93337 15.4582 4.94094L10.6224 6.2118L5.78663 7.48266C5.82506 7.62889 5.84417 7.77968 5.8434 7.9311L10.8433 7.95646ZM10.6224 6.2118L13.2884 10.4417C13.1716 10.5154 13.0448 10.5726 12.9116 10.6116L11.5078 5.81267L10.104 1.0138C9.34653 1.23537 8.62379 1.56123 7.95643 1.98185L10.6224 6.2118ZM7.99964 4.3764L4.80735 8.22468C4.69545 8.13185 4.61791 8.03968 4.56646 7.94404C4.53974 7.89437 4.52766 7.85718 4.5237 7.84168C4.51958 7.82557 4.53086 7.85882 4.53086 7.95646H9.53086H14.5309C14.5309 4.0631 12.5568 1.66034 11.1919 0.528116L7.99964 4.3764ZM9.53086 7.95646H4.53086C4.53086 8.05824 4.51904 8.09359 4.52306 8.07794C4.52692 8.0629 4.53919 8.02504 4.5669 7.97385C4.62029 7.87521 4.70212 7.77779 4.82347 7.67798L7.99964 11.5396L11.1758 15.4012C12.5303 14.2871 14.5309 11.8844 14.5309 7.95646H9.53086ZM7.99964 11.5396L11.1758 7.67798C11.2972 7.77779 11.379 7.87521 11.4324 7.97385C11.4601 8.02504 11.4724 8.0629 11.4762 8.07794C11.4802 8.09359 11.4684 8.05824 11.4684 7.95646H6.46842H1.46842C1.46842 11.8844 3.46902 14.2871 4.82347 15.4012L7.99964 11.5396ZM6.46842 7.95646H11.4684C11.4684 7.85877 11.4797 7.82549 11.4756 7.8416C11.4716 7.8571 11.4595 7.8943 11.4328 7.944C11.3813 8.0397 11.3037 8.13196 11.1917 8.22489L7.99964 4.3764L4.80761 0.527898C3.44252 1.66014 1.46842 4.06294 1.46842 7.95646H6.46842ZM4.49149 5.81267L3.08759 10.6115C2.95447 10.5726 2.82772 10.5154 2.71091 10.4418L5.37686 6.2118L8.04281 1.98182C7.37547 1.56123 6.65277 1.23538 5.89539 1.01381L4.49149 5.81267ZM5.37686 6.2118L0.541065 4.94094C0.280251 5.93337 0.150811 6.95575 0.156016 7.98182L5.15595 7.95646L10.1559 7.9311C10.1551 7.77968 10.1742 7.62889 10.2127 7.48266L5.37686 6.2118ZM5.15595 7.95646L0.155982 7.93906C0.153125 8.76002 0.235009 9.57911 0.400348 10.3833L5.2979 9.3763L10.1955 8.36934C10.1687 8.23929 10.1555 8.10675 10.1559 7.97386L5.15595 7.95646ZM5.2979 9.3763L9.44949 6.58985C9.42904 6.55938 9.41948 6.5432 9.41694 6.53878L5.08375 9.03347L0.75056 11.5282C0.884092 11.7601 1.01819 11.9719 1.14631 12.1628L5.2979 9.3763ZM5.08375 9.03347L9.4016 6.51233C9.382 6.47876 9.36615 6.44286 9.35446 6.40529L4.58025 7.89086L-0.19396 9.37642C0.0425174 10.1364 0.364503 10.8672 0.765897 11.5546L5.08375 9.03347ZM4.58025 7.89086L9.43209 6.68267C9.39104 6.51784 9.34711 6.3737 9.3071 6.2542L4.56581 7.84168L-0.17549 9.42917C-0.204655 9.34206 -0.238815 9.23062 -0.271582 9.09904L4.58025 7.89086ZM4.56581 7.84168L9.36356 6.434C9.37263 6.46493 9.38943 6.54211 9.38972 6.65816C9.38999 6.77047 9.37487 6.89522 9.34103 7.03001L4.49149 5.81267L-0.358053 4.59533C-0.659223 5.79511 -0.77145 7.41059 -0.231947 9.24936L4.56581 7.84168ZM2.37787 8.6303L3.16605 13.5678C3.01299 13.5922 2.85705 13.593 2.70374 13.5701L3.44326 8.62506L4.18278 3.68005C3.32286 3.55145 2.4483 3.55575 1.58969 3.69282L2.37787 8.6303ZM3.44326 8.62506L-1.24018 10.3759C-1.00456 11.0062 -0.716583 11.6156 -0.379232 12.1979L3.94708 9.6913L8.2734 7.18471C8.21599 7.08563 8.16691 6.98178 8.12671 6.87424L3.44326 8.62506ZM3.94708 9.6913L-0.376552 12.2025C0.124362 13.065 0.725561 13.8652 1.41461 14.5864L5.02981 11.1323L8.64501 7.67831C8.50128 7.52787 8.3756 7.36066 8.27072 7.18009L3.94708 9.6913ZM5.02981 11.1323L7.05374 6.56029C6.99493 6.53425 6.93752 6.50503 6.88177 6.47273L4.37544 10.7992L1.86912 15.1257C2.2373 15.339 2.61678 15.5322 3.00588 15.7044L5.02981 11.1323ZM4.37544 10.7992L6.87998 6.47169C6.741 6.39126 6.75504 6.37083 6.83103 6.46266C6.9045 6.55144 6.99107 6.69088 7.0634 6.88509L2.37787 8.6303L-2.30767 10.3755C-1.71761 11.9597 -0.464705 13.775 1.8709 15.1267L4.37544 10.7992ZM11.6238 10.7992L9.11759 6.47269C9.06205 6.50486 9.00486 6.53399 8.94629 6.55995L10.9724 11.1311L12.9984 15.7022C13.3857 15.5305 13.7635 15.3381 14.1301 15.1257L11.6238 10.7992ZM10.9724 11.1311L14.5902 14.5823C15.2783 13.861 15.8784 13.0608 16.3782 12.1985L12.0522 9.6913L7.72621 7.18415C7.62211 7.36378 7.49729 7.53013 7.35451 7.6798L10.9724 11.1311ZM12.0522 9.6913L16.3785 12.1979C16.7159 11.6156 17.0039 11.0061 17.2395 10.3758L12.556 8.625L7.87259 6.87423C7.83239 6.98175 7.78331 7.08559 7.72591 7.18466L12.0522 9.6913ZM12.556 8.625L13.296 13.57C13.1422 13.593 12.9858 13.5922 12.8323 13.5676L13.6214 8.6303L14.4105 3.69296C13.5515 3.55567 12.6765 3.55132 11.8161 3.68005L12.556 8.625ZM13.6214 8.6303L8.93588 6.88509C9.00822 6.69088 9.09478 6.55144 9.16825 6.46266C9.24425 6.37083 9.25829 6.39126 9.11931 6.47169L11.6238 10.7992L14.1284 15.1267C16.464 13.775 17.7169 11.9597 18.3069 10.3755L13.6214 8.6303Z" fill="url(#paint0_linear_371_241)" mask="url(#path-2-inside-1_371_241)"/>
<defs>
<linearGradient id="paint0_linear_371_241" x1="7.99964" y1="3.13236" x2="7.99964" y2="13.2191" gradientUnits="userSpaceOnUse">
<stop offset="0.4" stop-color="#FFCFEF"/>
<stop offset="0.8" stop-color="#0A97B0"/>
<stop offset="1" stop-color="#0A5EB0"/>
</linearGradient>
</defs>
</svg>
