<svg width="14" height="10" viewBox="0 0 14 10" fill="none" xmlns="http://www.w3.org/2000/svg">
<mask id="path-1-inside-1_371_232" fill="white">
<path d="M13.8531 4.91749C13.7809 4.79111 13.684 4.68059 13.5683 4.59252C13.4526 4.50446 13.3204 4.44065 13.1796 4.4049C12.7569 4.29941 12.3212 4.25596 11.886 4.27591C11.9729 3.58188 11.9094 2.87721 11.6998 2.21004C11.6168 1.95204 11.4411 1.73414 11.2069 1.59859C10.9727 1.46304 10.6966 1.4195 10.4322 1.4764C9.97798 1.57613 9.5412 1.74333 9.13631 1.97248C8.77493 1.28782 8.26967 0.689911 7.6554 0.219999C7.46645 0.0772159 7.23625 -9.88956e-06 6.99963 9.49908e-10C6.76301 9.89146e-06 6.53282 0.0772549 6.34388 0.220054C5.72961 0.689935 5.22435 1.28783 4.86298 1.97248C4.45813 1.74336 4.02141 1.57615 3.56727 1.4764C3.30282 1.41943 3.02669 1.46294 2.79243 1.5985C2.55818 1.73405 2.38249 1.95199 2.29945 2.21004C2.08985 2.87721 2.02635 3.58188 2.11328 4.27591C1.67812 4.25599 1.24238 4.29944 0.819657 4.4049C0.679037 4.44114 0.547045 4.50514 0.43141 4.59316C0.315775 4.68118 0.21882 4.79144 0.146224 4.91749C0.0736284 5.04353 0.0268501 5.18283 0.00862896 5.32723C-0.00959222 5.47162 0.00110989 5.61821 0.0401086 5.75841C0.242592 6.48423 0.859924 7.86253 2.71921 8.93863C4.54986 9.99807 6.13913 9.99984 6.99526 9.99984C6.99652 9.99984 6.99775 10 6.999 10L6.99964 9.99997L7.00028 10C7.00154 10 7.00277 9.99984 7.00402 9.99984C7.86012 9.99984 9.44942 9.99807 11.2801 8.93863C13.1394 7.86253 13.7567 6.48423 13.9592 5.75846C13.9987 5.61832 14.0097 5.47164 13.9914 5.32716C13.9732 5.18267 13.9262 5.04335 13.8531 4.91749ZM10.5078 2.81267C10.6221 3.26785 10.6897 3.96848 10.4335 4.84152C10.4281 4.8578 10.4232 4.87423 10.419 4.89094C10.2949 5.28968 10.126 5.67298 9.91554 6.03347C9.8475 6.15165 9.77567 6.26562 9.70139 6.3763C9.79742 5.9092 9.84499 5.43338 9.84333 4.95646C9.84632 4.36771 9.77205 3.78113 9.62242 3.2118C9.89769 3.03831 10.1957 2.90398 10.5078 2.81267ZM6.99964 1.3764C7.54522 1.82898 8.53086 2.92793 8.53086 4.95646C8.53086 7.00833 7.52984 8.10349 6.99964 8.53958C6.46944 8.10349 5.46842 7.00833 5.46842 4.95646C5.46842 2.92777 6.45411 1.82887 6.99964 1.3764ZM3.49149 2.81267C3.80362 2.90399 4.10159 3.03831 4.37686 3.2118C4.22724 3.78113 4.15297 4.36771 4.15595 4.95646C4.15429 5.43338 4.20186 5.9092 4.2979 6.3763C4.22362 6.26562 4.15179 6.15165 4.08375 6.03347C3.87325 5.67296 3.70434 5.28963 3.58025 4.89086C3.57611 4.87423 3.57123 4.85788 3.56581 4.84168C3.30962 3.96854 3.37723 3.26785 3.49149 2.81267ZM1.37787 5.6303C1.73065 5.57399 2.08995 5.57222 2.44326 5.62506C2.58117 5.99396 2.7497 6.35063 2.94708 6.6913C3.24998 7.21281 3.61342 7.69652 4.02981 8.13234C3.80585 8.0332 3.58741 7.92199 3.37544 7.7992C2.10513 7.06401 1.58786 6.19407 1.37787 5.6303ZM10.6238 7.7992C10.4128 7.92146 10.1953 8.03224 9.97236 8.13106C10.3878 7.69559 10.7503 7.2123 11.0522 6.6913C11.2496 6.35061 11.4181 5.99393 11.556 5.625C11.9094 5.57214 12.2687 5.57392 12.6214 5.6303C12.4114 6.19407 11.8942 7.06401 10.6238 7.7992Z"/>
</mask>
<path d="M13.8531 4.91749L9.51133 7.39729L9.52024 7.41288L9.52925 7.4284L13.8531 4.91749ZM13.1796 4.4049L14.4098 -0.441391L14.4 -0.443881L14.3902 -0.446331L13.1796 4.4049ZM11.886 4.27591L6.92477 3.65453L6.18734 9.54235L12.1149 9.27066L11.886 4.27591ZM11.6998 2.21004L16.4699 0.711387L16.4647 0.694607L16.4593 0.677865L11.6998 2.21004ZM10.4322 1.4764L9.38028 -3.4117L9.37007 -3.4095L9.35987 -3.40726L10.4322 1.4764ZM9.13631 1.97248L4.71447 4.30645L7.11794 8.85995L11.599 6.32394L9.13631 1.97248ZM7.6554 0.219999L10.6934 -3.75125L10.6816 -3.76022L10.6698 -3.76912L7.6554 0.219999ZM6.34388 0.220054L3.3291 -3.76882L3.31756 -3.76009L3.30607 -3.7513L6.34388 0.220054ZM4.86298 1.97248L2.40031 6.32395L6.88138 8.85995L9.28482 4.30642L4.86298 1.97248ZM3.56727 1.4764L4.63999 -3.40717L4.63013 -3.40934L4.62027 -3.41146L3.56727 1.4764ZM2.29945 2.21004L-2.46016 0.678335L-2.46549 0.694887L-2.4707 0.711475L2.29945 2.21004ZM2.11328 4.27591L1.88468 9.27068L7.81193 9.54195L7.07451 3.6545L2.11328 4.27591ZM0.819657 4.4049L-0.390614 -0.446419L-0.409471 -0.441714L-0.428291 -0.436863L0.819657 4.4049ZM0.0401086 5.75841L-4.777 7.09838L-4.77599 7.10197L0.0401086 5.75841ZM2.71921 8.93863L0.2146 13.2661L0.214745 13.2662L2.71921 8.93863ZM6.999 10V15H7.10338L7.20766 14.9956L6.999 10ZM6.99964 9.99997L7.20844 5.00433L6.99971 4.99561L6.79098 5.00433L6.99964 9.99997ZM7.00028 10L6.79149 14.9956L6.89584 15H7.00028V10ZM11.2801 8.93863L13.7845 13.2662L13.7847 13.2661L11.2801 8.93863ZM13.9592 5.75846L9.1469 4.4012L9.1431 4.41481L13.9592 5.75846ZM10.5078 2.81267L15.3573 1.59533L14.092 -3.44539L9.10395 -1.9862L10.5078 2.81267ZM10.4335 4.84152L15.1773 6.42151L15.2058 6.33585L15.2313 6.24921L10.4335 4.84152ZM10.419 4.89094L15.1932 6.37675L15.237 6.23605L15.2724 6.09303L10.419 4.89094ZM9.91554 6.03347L5.59769 3.51233L5.58998 3.52552L5.58236 3.53877L9.91554 6.03347ZM9.70139 6.3763L4.80383 5.36935L13.853 9.1627L9.70139 6.3763ZM9.84333 4.95646L4.8434 4.9311L4.84329 4.95249L4.84336 4.97387L9.84333 4.95646ZM9.62242 3.2118L6.95643 -1.01815L3.85475 0.936739L4.78663 4.48266L9.62242 3.2118ZM6.99964 1.3764L10.1919 -2.47188L6.99986 -5.11983L3.80761 -2.4721L6.99964 1.3764ZM6.99964 8.53958L3.82347 12.4012L6.99964 15.0136L10.1758 12.4012L6.99964 8.53958ZM3.49149 2.81267L4.89539 -1.98619L-0.0927078 -3.44545L-1.35805 1.59533L3.49149 2.81267ZM4.37686 3.2118L9.21266 4.48266L10.1445 0.936696L7.04281 -1.01818L4.37686 3.2118ZM4.15595 4.95646L9.15592 4.97386L9.156 4.95248L9.15589 4.9311L4.15595 4.95646ZM4.2979 6.3763L0.146311 9.16275L9.19545 5.36934L4.2979 6.3763ZM4.08375 6.03347L8.41694 3.53878L8.40931 3.52553L8.4016 3.51233L4.08375 6.03347ZM3.58025 4.89086L-1.27158 6.09904L-1.23677 6.23885L-1.19396 6.37642L3.58025 4.89086ZM3.56581 4.84168L-1.23195 6.24936L-1.20541 6.3398L-1.17549 6.42917L3.56581 4.84168ZM1.37787 5.6303L0.589691 0.692815L-5.43835 1.65508L-3.30767 7.37551L1.37787 5.6303ZM2.44326 5.62506L7.12671 3.87424L6.09545 1.11563L3.18278 0.680047L2.44326 5.62506ZM2.94708 6.6913L-1.37923 9.19789L-1.37655 9.20251L2.94708 6.6913ZM4.02981 8.13234L2.00588 12.7044L7.64501 4.67831L4.02981 8.13234ZM3.37544 7.7992L5.88177 3.47273L5.87998 3.47169L3.37544 7.7992ZM10.6238 7.7992L8.1193 3.47169L8.11759 3.47269L10.6238 7.7992ZM9.97236 8.13106L6.35451 4.6798L11.9984 12.7022L9.97236 8.13106ZM11.0522 6.6913L15.3782 9.19845L15.3785 9.19794L11.0522 6.6913ZM11.556 5.625L10.8161 0.680051L7.90373 1.11583L6.87259 3.87423L11.556 5.625ZM12.6214 5.6303L17.3069 7.37551L19.4372 1.65613L13.4105 0.692958L12.6214 5.6303ZM13.8531 4.91749L18.1948 2.43769C17.7901 1.72919 17.2468 1.10876 16.5966 0.613879L13.5683 4.59252L10.5401 8.57117C10.1213 8.25242 9.77163 7.85303 9.51133 7.39729L13.8531 4.91749ZM13.5683 4.59252L16.5966 0.613879C15.9464 0.11898 15.2027 -0.240111 14.4098 -0.441391L13.1796 4.4049L11.9494 9.25118C11.4381 9.1214 10.9589 8.88994 10.5401 8.57117L13.5683 4.59252ZM13.1796 4.4049L14.3902 -0.446331C13.4972 -0.669176 12.5766 -0.760994 11.6571 -0.71885L11.886 4.27591L12.1149 9.27066C12.0658 9.27292 12.0166 9.268 11.969 9.25612L13.1796 4.4049ZM11.886 4.27591L16.8472 4.89728C17.0234 3.49118 16.8947 2.06345 16.4699 0.711387L11.6998 2.21004L6.92969 3.70869C6.92412 3.69097 6.92251 3.67257 6.92477 3.65453L11.886 4.27591ZM11.6998 2.21004L16.4593 0.677865C15.9974 -0.756937 15.0194 -1.97192 13.7114 -2.72892L11.2069 1.59859L8.70236 5.92611C7.86277 5.4402 7.23613 4.66101 6.94035 3.74221L11.6998 2.21004ZM11.2069 1.59859L13.7114 -2.72892C12.4031 -3.48612 10.8593 -3.72998 9.38028 -3.4117L10.4322 1.4764L11.4841 6.3645C10.5339 6.56898 9.54228 6.41221 8.70236 5.92611L11.2069 1.59859ZM10.4322 1.4764L9.35987 -3.40726C8.41802 -3.20046 7.51262 -2.8538 6.67363 -2.37899L9.13631 1.97248L11.599 6.32394C11.5698 6.34047 11.5379 6.35272 11.5045 6.36006L10.4322 1.4764ZM9.13631 1.97248L13.5581 -0.361491C12.8596 -1.68488 11.8825 -2.84159 10.6934 -3.75125L7.6554 0.219999L4.61744 4.19125C4.65687 4.22141 4.69023 4.26052 4.71447 4.30645L9.13631 1.97248ZM7.6554 0.219999L10.6698 -3.76912C9.6136 -4.56729 8.32519 -5.00006 6.99942 -5L6.99963 9.49908e-10L6.99984 5C6.14731 5.00004 5.31929 4.72172 4.64095 4.20912L7.6554 0.219999ZM6.99963 9.49908e-10L6.99942 -5C5.67365 -4.99994 4.38528 -4.56707 3.3291 -3.76882L6.34388 0.220054L9.35866 4.20893C8.68036 4.72158 7.85236 4.99996 6.99984 5L6.99963 9.49908e-10ZM6.34388 0.220054L3.30607 -3.7513C2.11688 -2.84166 1.13967 -1.68491 0.441129 -0.361463L4.86298 1.97248L9.28482 4.30642C9.30902 4.26057 9.34233 4.22153 9.3817 4.19141L6.34388 0.220054ZM4.86298 1.97248L7.32564 -2.37899C6.48683 -2.85371 5.58162 -3.20034 4.63999 -3.40717L3.56727 1.4764L2.49456 6.35997C2.46119 6.35264 2.42943 6.34043 2.40031 6.32395L4.86298 1.97248ZM3.56727 1.4764L4.62027 -3.41146C3.14098 -3.73015 1.59687 -3.48645 0.288194 -2.72918L2.79243 1.5985L5.29668 5.92617C4.45652 6.41233 3.46467 6.56901 2.51427 6.36426L3.56727 1.4764ZM2.79243 1.5985L0.288194 -2.72918C-1.02014 -1.9721 -1.99831 -0.756826 -2.46016 0.678335L2.29945 2.21004L7.05906 3.74174C6.76329 4.6608 6.1365 5.4402 5.29668 5.92617L2.79243 1.5985ZM2.29945 2.21004L-2.4707 0.711475C-2.89546 2.06353 -3.02407 3.49124 -2.84796 4.89731L2.11328 4.27591L7.07451 3.6545C7.07677 3.67251 7.07516 3.6909 7.06959 3.7086L2.29945 2.21004ZM2.11328 4.27591L2.34187 -0.718867C1.4226 -0.760939 0.502175 -0.669145 -0.390614 -0.446419L0.819657 4.4049L2.02993 9.25621C1.98258 9.26802 1.93363 9.27292 1.88468 9.27068L2.11328 4.27591ZM0.819657 4.4049L-0.428291 -0.436863C-1.21443 -0.234237 -1.95166 0.123416 -2.59693 0.614577L0.43141 4.59316L3.45975 8.57174C3.04575 8.88687 2.57251 9.11652 2.0676 9.24665L0.819657 4.4049ZM0.43141 4.59316L-2.59693 0.614577C-3.24218 1.10571 -3.7824 1.72036 -4.18654 2.42206L0.146224 4.91749L4.47899 7.41291C4.22004 7.86252 3.87373 8.25664 3.45975 8.57174L0.43141 4.59316ZM0.146224 4.91749L-4.18654 2.42206C-4.59066 3.12372 -4.85074 3.89858 -4.95203 4.70124L0.00862896 5.32723L4.96929 5.95321C4.90444 6.46708 4.73792 6.96334 4.47899 7.41291L0.146224 4.91749ZM0.00862896 5.32723L-4.95203 4.70124C-5.05332 5.5039 -4.99385 6.31879 -4.77699 7.09838L0.0401086 5.75841L4.85721 4.41844C4.99607 4.91763 5.03413 5.43935 4.96929 5.95321L0.00862896 5.32723ZM0.0401086 5.75841L-4.77599 7.10197C-4.28887 8.84809 -2.97274 11.4214 0.2146 13.2661L2.71921 8.93863L5.22381 4.61116C5.05804 4.51522 4.95678 4.43419 4.89986 4.38268C4.84285 4.33108 4.81711 4.29711 4.81 4.28728C4.79688 4.26914 4.82437 4.3007 4.85621 4.41485L0.0401086 5.75841ZM2.71921 8.93863L0.214745 13.2662C3.22539 15.0085 5.92074 14.9998 6.99526 14.9998V9.99984V4.99984C6.59937 4.99984 6.37339 4.99362 6.11432 4.94667C5.8763 4.90353 5.57948 4.817 5.22367 4.61108L2.71921 8.93863ZM6.99526 9.99984V14.9998C6.94229 14.9998 6.89514 14.999 6.85517 14.9979C6.81531 14.9967 6.78114 14.9953 6.75461 14.994C6.72831 14.9928 6.70709 14.9915 6.69427 14.9907C6.68772 14.9903 6.68244 14.99 6.67928 14.9898C6.6764 14.9896 6.67394 14.9895 6.67444 14.9895C6.67444 14.9895 6.67449 14.9895 6.67454 14.9895C6.6746 14.9895 6.6747 14.9895 6.67481 14.9895C6.67503 14.9895 6.67539 14.9896 6.67582 14.9896C6.67667 14.9896 6.67805 14.9897 6.67974 14.9898C6.68306 14.99 6.6885 14.9904 6.6952 14.9908C6.70833 14.9916 6.72987 14.9928 6.75647 14.9941C6.78332 14.9954 6.8178 14.9969 6.85797 14.998C6.89825 14.9992 6.94571 15 6.999 15V10V5C7.05198 5 7.09913 5.00085 7.1391 5.00197C7.17895 5.00309 7.21312 5.00453 7.23966 5.00582C7.26595 5.00709 7.28718 5.00833 7.3 5.0091C7.30654 5.0095 7.31182 5.00983 7.31499 5.01003C7.31787 5.01022 7.32033 5.01038 7.31983 5.01034C7.31983 5.01034 7.31978 5.01034 7.31972 5.01034C7.31966 5.01033 7.31957 5.01033 7.31945 5.01032C7.31923 5.01031 7.31888 5.01028 7.31844 5.01025C7.31759 5.0102 7.31622 5.01011 7.31452 5.01C7.3112 5.00979 7.30577 5.00945 7.29907 5.00904C7.28594 5.00825 7.2644 5.00699 7.23779 5.0057C7.21095 5.00441 7.17647 5.00295 7.1363 5.00182C7.09602 5.00069 7.04855 4.99984 6.99526 4.99984V9.99984ZM6.999 10L7.20766 14.9956L7.2083 14.9956L6.99964 9.99997L6.79098 5.00433L6.79034 5.00436L6.999 10ZM6.99964 9.99997L6.79085 14.9956L6.79149 14.9956L7.00028 10L7.20908 5.00436L7.20844 5.00433L6.99964 9.99997ZM7.00028 10V15C7.05347 15 7.10087 14.9992 7.14115 14.998C7.18132 14.9969 7.21582 14.9954 7.24271 14.9941C7.26937 14.9929 7.29095 14.9916 7.30414 14.9908C7.31087 14.9904 7.31632 14.99 7.31966 14.9898C7.32137 14.9897 7.32276 14.9896 7.32362 14.9896C7.32405 14.9895 7.32441 14.9895 7.32464 14.9895C7.32475 14.9895 7.32485 14.9895 7.32491 14.9895C7.32497 14.9895 7.32502 14.9895 7.32503 14.9895C7.32555 14.9895 7.32309 14.9896 7.32022 14.9898C7.31706 14.99 7.31178 14.9903 7.30524 14.9907C7.29241 14.9915 7.27117 14.9927 7.24484 14.994C7.21828 14.9953 7.18407 14.9967 7.14418 14.9979C7.10417 14.999 7.057 14.9998 7.00402 14.9998V9.99984V4.99984C6.95073 4.99984 6.90325 5.00069 6.86293 5.00182C6.82272 5.00296 6.7882 5.00441 6.76133 5.00571C6.73469 5.007 6.71313 5.00826 6.7 5.00906C6.6933 5.00946 6.68787 5.00981 6.68456 5.01002C6.68286 5.01012 6.68149 5.01021 6.68065 5.01027C6.68021 5.01029 6.67986 5.01032 6.67965 5.01033C6.67953 5.01034 6.67944 5.01034 6.67938 5.01035C6.67933 5.01035 6.67928 5.01036 6.67928 5.01036C6.6788 5.01039 6.68127 5.01023 6.68418 5.01004C6.68736 5.00984 6.69266 5.0095 6.69923 5.00911C6.71211 5.00833 6.73339 5.00708 6.75973 5.00581C6.78631 5.00453 6.8205 5.00308 6.86036 5.00197C6.90033 5.00084 6.94741 5 7.00028 5V10ZM7.00402 9.99984V14.9998C8.07851 14.9998 10.7739 15.0085 13.7845 13.2662L11.2801 8.93863L8.77562 4.61108C8.41981 4.81699 8.12299 4.90353 7.88496 4.94667C7.62588 4.99362 7.3999 4.99984 7.00402 4.99984V9.99984ZM11.2801 8.93863L13.7847 13.2661C16.972 11.4214 18.2881 8.84812 18.7753 7.10211L13.9592 5.75846L9.1431 4.41481C9.17495 4.30066 9.20243 4.26911 9.18931 4.28726C9.18219 4.2971 9.15644 4.33107 9.09942 4.38268C9.04251 4.43419 8.94124 4.51522 8.77547 4.61116L11.2801 8.93863ZM13.9592 5.75846L18.7714 7.11572C18.9928 6.33103 19.0542 5.50994 18.9521 4.70121L13.9914 5.32716L9.03078 5.9531C8.9652 5.43334 9.00465 4.90561 9.14691 4.40121L13.9592 5.75846ZM13.9914 5.32716L18.9521 4.70121C18.8501 3.89248 18.5866 3.11209 18.1769 2.40658L13.8531 4.91749L9.52925 7.4284C9.26573 6.97461 9.09636 6.47287 9.03078 5.9531L13.9914 5.32716ZM10.5078 2.81267L5.65825 4.03001C5.62442 3.89527 5.6093 3.77052 5.60957 3.65817C5.60986 3.54209 5.62666 3.46485 5.63576 3.43383L10.4335 4.84152L15.2313 6.24921C15.7708 4.41047 15.6585 2.79503 15.3573 1.59533L10.5078 2.81267ZM10.4335 4.84152L5.68971 3.26154C5.65214 3.37434 5.60774 3.51908 5.56569 3.68884L10.419 4.89094L15.2724 6.09303C15.2386 6.22939 15.204 6.34126 15.1773 6.42151L10.4335 4.84152ZM10.419 4.89094L5.6449 3.40512C5.63319 3.44275 5.61731 3.47871 5.59769 3.51233L9.91554 6.03347L14.2334 8.55461C14.6347 7.86726 14.9567 7.1366 15.1932 6.37675L10.419 4.89094ZM9.91554 6.03347L5.58236 3.53877C5.57982 3.54317 5.57026 3.55937 5.54976 3.58991L9.70139 6.3763L13.853 9.1627C13.9811 8.97187 14.1152 8.76012 14.2487 8.52817L9.91554 6.03347ZM9.70139 6.3763L14.5989 7.38326C14.7643 6.5791 14.8462 5.76001 14.8433 4.93905L9.84333 4.95646L4.84336 4.97387C4.84383 5.10676 4.83057 5.2393 4.80383 5.36935L9.70139 6.3763ZM9.84333 4.95646L14.8433 4.98182C14.8485 3.95575 14.719 2.93337 14.4582 1.94094L9.62242 3.2118L4.78663 4.48266C4.82506 4.62889 4.84417 4.77968 4.8434 4.9311L9.84333 4.95646ZM9.62242 3.2118L12.2884 7.44175C12.1716 7.51539 12.0448 7.5726 11.9116 7.61155L10.5078 2.81267L9.10395 -1.9862C8.34653 -1.76463 7.62379 -1.43877 6.95643 -1.01815L9.62242 3.2118ZM6.99964 1.3764L3.80735 5.22468C3.69545 5.13185 3.61791 5.03968 3.56646 4.94404C3.53974 4.89437 3.52766 4.85718 3.5237 4.84168C3.51958 4.82557 3.53086 4.85882 3.53086 4.95646H8.53086H13.5309C13.5309 1.0631 11.5568 -1.33966 10.1919 -2.47188L6.99964 1.3764ZM8.53086 4.95646H3.53086C3.53086 5.05824 3.51904 5.09359 3.52306 5.07794C3.52692 5.0629 3.53919 5.02504 3.5669 4.97385C3.62029 4.87521 3.70212 4.77779 3.82347 4.67798L6.99964 8.53958L10.1758 12.4012C11.5303 11.2871 13.5309 8.88438 13.5309 4.95646H8.53086ZM6.99964 8.53958L10.1758 4.67798C10.2972 4.77779 10.379 4.87521 10.4324 4.97385C10.4601 5.02504 10.4724 5.0629 10.4762 5.07794C10.4802 5.09359 10.4684 5.05824 10.4684 4.95646H5.46842H0.468424C0.468424 8.88438 2.46902 11.2871 3.82347 12.4012L6.99964 8.53958ZM5.46842 4.95646H10.4684C10.4684 4.85877 10.4797 4.82549 10.4756 4.8416C10.4716 4.8571 10.4595 4.8943 10.4328 4.944C10.3813 5.0397 10.3037 5.13196 10.1917 5.22489L6.99964 1.3764L3.80761 -2.4721C2.44252 -1.33986 0.468424 1.06294 0.468424 4.95646H5.46842ZM3.49149 2.81267L2.08759 7.61153C1.95447 7.57259 1.82772 7.51539 1.71091 7.44178L4.37686 3.2118L7.04281 -1.01818C6.37547 -1.43877 5.65277 -1.76462 4.89539 -1.98619L3.49149 2.81267ZM4.37686 3.2118L-0.458935 1.94094C-0.719749 2.93337 -0.849189 3.95575 -0.843984 4.98182L4.15595 4.95646L9.15589 4.9311C9.15512 4.77968 9.17423 4.62889 9.21266 4.48266L4.37686 3.2118ZM4.15595 4.95646L-0.844018 4.93906C-0.846875 5.76002 -0.764991 6.57911 -0.599652 7.38327L4.2979 6.3763L9.19545 5.36934C9.16872 5.23929 9.15546 5.10675 9.15592 4.97386L4.15595 4.95646ZM4.2979 6.3763L8.44949 3.58985C8.42904 3.55938 8.41948 3.5432 8.41694 3.53878L4.08375 6.03347L-0.24944 8.52816C-0.115908 8.7601 0.0181927 8.97187 0.146311 9.16275L4.2979 6.3763ZM4.08375 6.03347L8.4016 3.51233C8.382 3.47876 8.36615 3.44286 8.35446 3.40529L3.58025 4.89086L-1.19396 6.37642C-0.957483 7.13639 -0.635497 7.86716 -0.234103 8.55461L4.08375 6.03347ZM3.58025 4.89086L8.43209 3.68267C8.39104 3.51784 8.34711 3.3737 8.3071 3.2542L3.56581 4.84168L-1.17549 6.42917C-1.20465 6.34206 -1.23882 6.23062 -1.27158 6.09904L3.58025 4.89086ZM3.56581 4.84168L8.36356 3.434C8.37263 3.46493 8.38943 3.54211 8.38972 3.65816C8.38999 3.77047 8.37487 3.89522 8.34103 4.03001L3.49149 2.81267L-1.35805 1.59533C-1.65922 2.79511 -1.77145 4.41059 -1.23195 6.24936L3.56581 4.84168ZM1.37787 5.6303L2.16605 10.5678C2.01299 10.5922 1.85705 10.593 1.70374 10.5701L2.44326 5.62506L3.18278 0.680047C2.32286 0.551445 1.4483 0.555753 0.589691 0.692815L1.37787 5.6303ZM2.44326 5.62506L-2.24018 7.37587C-2.00456 8.00615 -1.71658 8.61563 -1.37923 9.19789L2.94708 6.6913L7.2734 4.18471C7.21599 4.08563 7.16691 3.98178 7.12671 3.87424L2.44326 5.62506ZM2.94708 6.6913L-1.37655 9.20251C-0.875638 10.065 -0.274439 10.8652 0.414612 11.5864L4.02981 8.13234L7.64501 4.67831C7.50128 4.52787 7.3756 4.36066 7.27072 4.18009L2.94708 6.6913ZM4.02981 8.13234L6.05374 3.56029C5.99493 3.53425 5.93752 3.50503 5.88177 3.47273L3.37544 7.7992L0.869117 12.1257C1.2373 12.339 1.61678 12.5322 2.00588 12.7044L4.02981 8.13234ZM3.37544 7.7992L5.87998 3.47169C5.741 3.39126 5.75504 3.37083 5.83103 3.46266C5.9045 3.55144 5.99107 3.69088 6.0634 3.88509L1.37787 5.6303L-3.30767 7.37551C-2.71761 8.95969 -1.4647 10.775 0.870905 12.1267L3.37544 7.7992ZM10.6238 7.7992L8.11759 3.47269C8.06205 3.50486 8.00486 3.53399 7.94629 3.55995L9.97236 8.13106L11.9984 12.7022C12.3857 12.5305 12.7635 12.3381 13.1301 12.1257L10.6238 7.7992ZM9.97236 8.13106L13.5902 11.5823C14.2783 10.861 14.8784 10.0608 15.3782 9.19845L11.0522 6.6913L6.72621 4.18415C6.62211 4.36378 6.49729 4.53013 6.35451 4.6798L9.97236 8.13106ZM11.0522 6.6913L15.3785 9.19794C15.7159 8.61563 16.0039 8.00611 16.2395 7.37578L11.556 5.625L6.87259 3.87423C6.83239 3.98175 6.78331 4.08559 6.72591 4.18466L11.0522 6.6913ZM11.556 5.625L12.296 10.57C12.1422 10.593 11.9858 10.5922 11.8323 10.5676L12.6214 5.6303L13.4105 0.692958C12.5515 0.555674 11.6765 0.551317 10.8161 0.680051L11.556 5.625ZM12.6214 5.6303L7.93588 3.88509C8.00822 3.69088 8.09478 3.55144 8.16825 3.46266C8.24425 3.37083 8.25829 3.39126 8.11931 3.47169L10.6238 7.7992L13.1284 12.1267C15.464 10.775 16.7169 8.95969 17.3069 7.37551L12.6214 5.6303Z" fill="url(#paint0_linear_371_232)" mask="url(#path-1-inside-1_371_232)"/>
<defs>
<linearGradient id="paint0_linear_371_232" x1="6.99964" y1="0.132364" x2="6.99964" y2="10.2191" gradientUnits="userSpaceOnUse">
<stop offset="0.4" stop-color="#FFCFEF"/>
<stop offset="0.8" stop-color="#0A97B0"/>
<stop offset="1" stop-color="#0A5EB0"/>
</linearGradient>
</defs>
</svg>
