<svg width="16" height="16" viewBox="0 0 16 16" fill="none" xmlns="http://www.w3.org/2000/svg">
<g id="refresh-con">
<mask id="path-1-inside-1_325_171" fill="white">
<path d="M15.0711 7.99643C15.6179 8.07419 15.9981 8.58048 15.9204 9.12727C15.6826 10.7992 14.9218 12.3531 13.747 13.5663C12.5721 14.7794 11.0435 15.5897 9.37999 15.881C7.7165 16.1723 6.00349 15.9297 4.48631 15.1879C3.77335 14.8394 3.12082 14.389 2.5472 13.8546L1.70711 14.6947C1.07714 15.3247 0 14.8785 0 13.9876V10.0009H3.98673C4.87763 10.0009 5.3238 11.078 4.69383 11.708L3.9626 12.4392C4.38006 12.819 4.85153 13.1403 5.36475 13.3912C6.50264 13.9475 7.78739 14.1294 9.03501 13.911C10.2826 13.6925 11.4291 13.0848 12.3102 12.1749C13.1914 11.265 13.762 10.0997 13.9403 8.84567C14.0181 8.29889 14.5244 7.91867 15.0711 7.99643ZM11.5137 0.813891C12.2279 1.16306 12.8814 1.6144 13.4558 2.14996L14.2929 1.31284C14.9229 0.682876 16 1.12904 16 2.01995V6.00092H12.019C11.1281 6.00092 10.6819 4.92378 11.3119 4.29382L12.0404 3.56532C11.6222 3.18437 11.1497 2.86216 10.6353 2.61064C9.49736 2.05433 8.21261 1.87237 6.96499 2.09085C5.71737 2.30932 4.57089 2.91702 3.68976 3.8269C2.80862 4.73677 2.23802 5.90216 2.05969 7.15615C1.98193 7.70293 1.47564 8.08315 0.928858 8.00539C0.382075 7.92763 0.00185585 7.42134 0.0796146 6.87455C0.31739 5.20257 1.07818 3.64873 2.25303 2.43556C3.42788 1.22239 4.95652 0.412132 6.62001 0.120832C8.2835 -0.170468 9.99651 0.0721335 11.5137 0.813891Z"/>
</mask>
<path d="M14.9547 7.98667L14.8712 8.98317L14.9875 8.99293L15.0711 7.99643L15.1547 6.99992L15.0383 6.99017L14.9547 7.98667ZM15.0711 7.99643L14.7895 9.9765L14.7895 9.97651L15.0711 7.99643ZM15.9204 9.12727L17.9005 9.40889L17.9005 9.40864L15.9204 9.12727ZM13.747 13.5663L15.1837 14.9577L15.1838 14.9576L13.747 13.5663ZM9.37999 15.881L9.03502 13.911L9.03501 13.911L9.37999 15.881ZM4.48631 15.1879L5.36479 13.3912L5.36461 13.3911L4.48631 15.1879ZM2.5472 13.8546L3.9105 12.3912L2.49802 11.0753L1.13298 12.4404L2.5472 13.8546ZM1.70711 14.6947L0.292889 13.2805L0.292864 13.2805L1.70711 14.6947ZM0 10.0009V8.00089H-2V10.0009H0ZM4.69383 11.708L6.10801 13.1222L6.10808 13.1222L4.69383 11.708ZM3.9626 12.4392L2.54842 11.025L1.06576 12.5076L2.61669 13.9186L3.9626 12.4392ZM5.36475 13.3912L6.24317 11.5944L6.24315 11.5944L5.36475 13.3912ZM9.03501 13.911L9.37987 15.881L9.38003 15.881L9.03501 13.911ZM12.3102 12.1749L10.8735 10.7835L10.8734 10.7836L12.3102 12.1749ZM13.9403 8.84567L11.9602 8.56393L11.9602 8.56414L13.9403 8.84567ZM11.5137 0.813891L10.6353 2.61065V2.61065L11.5137 0.813891ZM13.4558 2.14996L12.0919 3.61277L13.5044 4.92978L14.87 3.56416L13.4558 2.14996ZM14.2929 1.31284L12.8787 -0.101405L12.8787 -0.101353L14.2929 1.31284ZM16 6.00092V8.00092H18V6.00092H16ZM11.3119 4.29382L12.7261 5.70808L12.7261 5.70803L11.3119 4.29382ZM12.0404 3.56532L13.4546 4.97954L14.9363 3.49787L13.3872 2.08679L12.0404 3.56532ZM10.6353 2.61064L11.5138 0.813923L11.5137 0.813864L10.6353 2.61064ZM6.96499 2.09085L7.30996 4.06088L7.30998 4.06088L6.96499 2.09085ZM3.68976 3.8269L5.12647 5.21825L5.12649 5.21824L3.68976 3.8269ZM2.05969 7.15615L4.03977 7.43774L4.03977 7.43774L2.05969 7.15615ZM0.928858 8.00539L1.21045 6.02531H1.21045L0.928858 8.00539ZM0.0796146 6.87455L-1.90046 6.59296L-1.90046 6.59296L0.0796146 6.87455ZM6.62001 0.120832L6.27503 -1.84919L6.27503 -1.84919L6.62001 0.120832ZM15.0711 7.99643L14.7895 9.97651C14.2427 9.89874 13.8626 9.39244 13.9403 8.84589L15.9204 9.12727L17.9005 9.40864C18.1336 7.76851 16.9931 6.24964 15.3527 6.01635L15.0711 7.99643ZM15.9204 9.12727L13.9403 8.84564C13.762 10.0996 13.1914 11.2651 12.3102 12.175L13.747 13.5663L15.1838 14.9576C16.6522 13.4411 17.6032 11.4988 17.9005 9.40889L15.9204 9.12727ZM13.747 13.5663L12.3103 12.1749C11.4291 13.0848 10.2826 13.6925 9.03502 13.911L9.37999 15.881L9.72496 17.851C11.8044 17.4869 13.7151 16.474 15.1837 14.9577L13.747 13.5663ZM9.37999 15.881L9.03501 13.911C7.78739 14.1295 6.50265 13.9475 5.36479 13.3912L4.48631 15.1879L3.60783 16.9846C5.50433 17.9119 7.64561 18.2151 9.72497 17.851L9.37999 15.881ZM4.48631 15.1879L5.36461 13.3911C4.83 13.1298 4.3407 12.792 3.9105 12.3912L2.5472 13.8546L1.1839 15.318C1.90094 15.986 2.7167 16.5491 3.60801 16.9847L4.48631 15.1879ZM2.5472 13.8546L1.13298 12.4404L0.292889 13.2805L1.70711 14.6947L3.12133 16.1089L3.96142 15.2688L2.5472 13.8546ZM1.70711 14.6947L0.292864 13.2805C0.922903 12.6505 2 13.0968 2 13.9876H0H-2C-2 16.6602 1.23138 17.9989 3.12136 16.1089L1.70711 14.6947ZM0 13.9876H2V10.0009H0H-2V13.9876H0ZM0 10.0009V12.0009H3.98673V10.0009V8.00089H0V10.0009ZM3.98673 10.0009V12.0009C3.09577 12.0009 2.64972 10.9237 3.27958 10.2938L4.69383 11.708L6.10808 13.1222C7.99788 11.2323 6.6595 8.00089 3.98673 8.00089V10.0009ZM4.69383 11.708L3.27965 10.2938L2.54842 11.025L3.9626 12.4392L5.37678 13.8534L6.10801 13.1222L4.69383 11.708ZM3.9626 12.4392L2.61669 13.9186C3.17329 14.425 3.80198 14.8534 4.48635 15.188L5.36475 13.3912L6.24315 11.5944C5.90108 11.4272 5.58683 11.213 5.30851 10.9598L3.9626 12.4392ZM5.36475 13.3912L4.48633 15.188C6.00356 15.9297 7.71651 16.1722 9.37987 15.881L9.03501 13.911L8.69015 11.941C7.85827 12.0866 7.00172 11.9653 6.24317 11.5944L5.36475 13.3912ZM9.03501 13.911L9.38003 15.881C11.0435 15.5897 12.5721 14.7794 13.747 13.5662L12.3102 12.1749L10.8734 10.7836C10.2861 11.3902 9.52174 11.7953 8.68999 11.941L9.03501 13.911ZM12.3102 12.1749L13.7469 13.5663C14.9218 12.3531 15.6826 10.7993 15.9204 9.1272L13.9403 8.84567L11.9602 8.56414C11.8414 9.40009 11.461 10.1769 10.8735 10.7835L12.3102 12.1749ZM13.9403 8.84567L15.9204 9.1274C15.8426 9.67394 15.3365 10.0543 14.7895 9.9765L15.0711 7.99643L15.3527 6.01636C13.7123 5.78303 12.1936 6.92384 11.9602 8.56393L13.9403 8.84567ZM11.5137 0.813891L10.6353 2.61065C11.1709 2.87252 11.661 3.211 12.0919 3.61277L13.4558 2.14996L14.8197 0.687158C14.1018 0.0178082 13.2849 -0.546387 12.3921 -0.982869L11.5137 0.813891ZM13.4558 2.14996L14.87 3.56416L15.7071 2.72704L14.2929 1.31284L12.8787 -0.101353L12.0416 0.735766L13.4558 2.14996ZM14.2929 1.31284L15.7071 2.72709C15.0772 3.35698 14 2.91086 14 2.01995H16H18C18 -0.652775 14.7686 -1.99123 12.8787 -0.101405L14.2929 1.31284ZM16 2.01995H14V6.00092H16H18V2.01995H16ZM16 6.00092V4.00092H12.019V6.00092V8.00092H16V6.00092ZM12.019 6.00092V4.00092C12.9098 4.00092 13.3562 5.078 12.7261 5.70808L11.3119 4.29382L9.89773 2.87956C8.00761 4.76956 9.34644 8.00092 12.019 8.00092V6.00092ZM11.3119 4.29382L12.7261 5.70803L13.4546 4.97954L12.0404 3.56532L10.6262 2.15111L9.89769 2.87961L11.3119 4.29382ZM12.0404 3.56532L13.3872 2.08679C12.8297 1.57888 12.1996 1.14926 11.5138 0.813923L10.6353 2.61064L9.75678 4.40736C10.0998 4.57506 10.4148 4.78987 10.6936 5.04385L12.0404 3.56532ZM10.6353 2.61064L11.5137 0.813864C9.9965 0.0721469 8.28352 -0.170478 6.62001 0.120832L6.96499 2.09085L7.30998 4.06088C8.1417 3.91523 8.99822 4.03652 9.7569 4.40742L10.6353 2.61064ZM6.96499 2.09085L6.62002 0.120829C4.95652 0.412124 3.42787 1.22239 2.25303 2.43557L3.68976 3.8269L5.12649 5.21824C5.71391 4.61165 6.47822 4.20652 7.30996 4.06088L6.96499 2.09085ZM3.68976 3.8269L2.25305 2.43555C1.07819 3.64872 0.317386 5.20257 0.0796121 6.87456L2.05969 7.15615L4.03977 7.43774C4.15865 6.60175 4.53905 5.82482 5.12647 5.21825L3.68976 3.8269ZM2.05969 7.15615L0.0796133 6.87455C0.157373 6.32777 0.663663 5.94755 1.21045 6.02531L0.928858 8.00539L0.647264 9.98546C2.28762 10.2187 3.80649 9.07808 4.03977 7.43774L2.05969 7.15615ZM0.928858 8.00539L1.21045 6.02531C1.75724 6.10307 2.13745 6.60936 2.05969 7.15614L0.0796146 6.87455L-1.90046 6.59296C-2.13374 8.23331 -0.993086 9.75218 0.647264 9.98546L0.928858 8.00539ZM0.0796146 6.87455L2.05969 7.15614C2.23802 5.90216 2.80861 4.73678 3.68975 3.8269L2.25303 2.43556L0.816309 1.04422C-0.652254 2.56068 -1.60324 4.50298 -1.90046 6.59296L0.0796146 6.87455ZM2.25303 2.43556L3.68975 3.8269C4.57089 2.91703 5.71737 2.30933 6.96499 2.09085L6.62001 0.120832L6.27503 -1.84919C4.19567 -1.48506 2.28487 -0.472238 0.816309 1.04422L2.25303 2.43556ZM6.62001 0.120832L6.96499 2.09085C8.21261 1.87238 9.49736 2.05433 10.6353 2.61065L11.5137 0.813891L12.3921 -0.982868C10.4957 -1.91006 8.35439 -2.21332 6.27503 -1.84919L6.62001 0.120832Z" fill="white" mask="url(#path-1-inside-1_325_171)"/>
</g>
</svg>
