<svg width="34" height="34" viewBox="0 0 34 34" fill="none" xmlns="http://www.w3.org/2000/svg">
<path d="M33 9.8898H27.342M33 17.0009H27.6667M33 24.112H27.342M6.6579 9.8898H1M9.88889 6.65882V1.00092M9.88889 33.0009V27.343M17 6.33425V1.00092M17 33.0009V27.6676M24.1111 6.65882V1.00092M24.1111 33.0009V27.343M6.33333 17.0009H1M6.6579 24.112H1M14.8667 27.6676H19.1333C22.1204 27.6676 23.6137 27.6676 24.7547 27.0863C25.7582 26.575 26.574 25.7591 27.0853 24.7556C27.6667 23.6146 27.6667 22.1213 27.6667 19.1342V14.8676C27.6667 11.8806 27.6667 10.3872 27.0853 9.2463C26.574 8.24276 25.7582 7.42687 24.7547 6.91555C23.6137 6.33425 22.1204 6.33425 19.1333 6.33425H14.8667C11.8797 6.33425 10.3862 6.33425 9.24539 6.91555C8.24185 7.42687 7.42596 8.24276 6.91463 9.2463C6.33333 10.3872 6.33333 11.8806 6.33333 14.8676V19.1342C6.33333 22.1213 6.33333 23.6146 6.91463 24.7556C7.42596 25.7591 8.24185 26.575 9.24539 27.0863C10.3862 27.6676 11.8797 27.6676 14.8667 27.6676ZM13.4444 13.4454H20.5556V20.5565H13.4444V13.4454Z" stroke="white" stroke-width="2" stroke-linecap="round" stroke-linejoin="round"/>
</svg>
