<svg width="34" height="34" viewBox="0 0 34 34" fill="none" xmlns="http://www.w3.org/2000/svg">
<path d="M16.9997 21.801C14.188 21.801 11.9086 19.652 11.9086 17.001C11.9086 14.35 14.188 12.201 16.9997 12.201C19.8115 12.201 22.0908 14.35 22.0908 17.001C22.0908 19.652 19.8115 21.801 16.9997 21.801Z" stroke="white" stroke-width="2"/>
<path d="M14.004 1.2445C14.6279 1.00092 15.4185 1.00092 17 1.00092C18.5815 1.00092 19.3721 1.00092 19.9959 1.2445C20.8275 1.56928 21.4883 2.19224 21.8328 2.97632C21.99 3.33426 22.0515 3.75052 22.0756 4.3577C22.111 5.25 22.5964 6.07594 23.4166 6.5224C24.2368 6.96885 25.2381 6.95218 26.0754 6.53493C26.6452 6.251 27.0583 6.09311 27.4657 6.04255C28.3582 5.93176 29.2608 6.15978 29.9749 6.67644C30.5105 7.06392 30.9059 7.70956 31.6966 9.0008C32.4873 10.2921 32.8827 10.9377 32.9708 11.5688C33.0883 12.4102 32.8464 13.2612 32.2984 13.9345C32.0483 14.2419 31.6968 14.5001 31.1512 14.8233C30.3492 15.2985 29.8331 16.108 29.8332 17.0009C29.8333 17.8939 30.3493 18.7032 31.1513 19.1782C31.6969 19.5016 32.0485 19.76 32.2986 20.0673C32.8466 20.7406 33.0884 21.5915 32.9709 22.4329C32.8828 23.064 32.4875 23.7097 31.6968 25.0009C30.906 26.2921 30.5107 26.9379 29.9751 27.3252C29.2609 27.8419 28.3583 28.0699 27.4659 27.9592C27.0585 27.9086 26.6454 27.7507 26.0757 27.4668C25.2383 27.0496 24.2369 27.0329 23.4166 27.4793C22.5964 27.9259 22.111 28.7518 22.0756 29.6443C22.0515 30.2513 21.99 30.6676 21.8328 31.0256C21.4883 31.8096 20.8275 32.4326 19.9959 32.7574C19.3721 33.0009 18.5815 33.0009 17 33.0009C15.4185 33.0009 14.6279 33.0009 14.004 32.7574C13.1725 32.4326 12.5117 31.8096 12.1673 31.0256C12.01 30.6676 11.9484 30.2513 11.9243 29.6441C11.889 28.7518 11.4037 27.9259 10.5835 27.4793C9.76333 27.0328 8.7619 27.0496 7.92442 27.4668C7.35472 27.7507 6.94167 27.9084 6.53438 27.959C5.64191 28.0699 4.73925 27.8419 4.02514 27.3252C3.48956 26.9377 3.09415 26.2921 2.3035 25.0008C1.51268 23.7096 1.11727 23.064 1.0292 22.4329C0.911763 21.5915 1.15359 20.7404 1.70156 20.0672C1.95171 19.7598 2.30333 19.5014 2.84893 19.1782C3.65078 18.7032 4.16684 17.8937 4.16684 17.0008C4.16684 16.1078 3.65078 15.2987 2.84893 14.8236C2.30316 14.5003 1.95153 14.242 1.70139 13.9345C1.15342 13.2613 0.911592 12.4103 1.02903 11.5689C1.1171 10.9378 1.51251 10.2922 2.30333 9.00092C3.09398 7.70967 3.48939 7.06404 4.02497 6.67655C4.73908 6.15989 5.64174 5.93188 6.53421 6.04266C6.94149 6.09322 7.35455 6.25109 7.92442 6.535C8.76173 6.95226 9.76315 6.96895 10.5833 6.52245C11.4037 6.07597 11.889 5.24997 11.9243 4.35762C11.9484 3.75048 12.01 3.33424 12.1673 2.97632C12.5117 2.19224 13.1725 1.56928 14.004 1.2445Z" stroke="white" stroke-width="2"/>
</svg>
