<svg width="32" height="32" viewBox="0 0 32 32" fill="none" xmlns="http://www.w3.org/2000/svg">
<path d="M16 1.00092C24.2843 1.00092 31 7.71658 31 16.0009C31 24.2852 24.2843 31.0009 16 31.0009C7.71576 31.0009 1 24.2852 1 16.0009C1 7.71658 7.71575 1.00092 16 1.00092ZM16 2.20111C8.38981 2.20111 2.2002 8.39073 2.2002 16.0009C2.2002 23.6111 8.38981 29.8007 16 29.8007C23.6103 29.8007 29.7998 23.6111 29.7998 16.0009C29.7998 8.39073 23.6103 2.20111 16 2.20111ZM16.6035 15.4013V23.0009H15.4033V15.4013H16.6035ZM16.0166 8.60052C16.6034 8.60068 17.0037 8.99146 17.0039 9.60052C17.0039 10.2109 16.6041 10.6004 16.0166 10.6005C15.6648 10.6005 15.4249 10.4809 15.2744 10.329C15.123 10.1763 15.004 9.9323 15.0039 9.57904C15.0039 9.00815 15.3891 8.60052 16.0166 8.60052Z" stroke="white" stroke-width="2"/>
</svg>
