<svg width="27" height="34" viewBox="0 0 27 34" fill="none" xmlns="http://www.w3.org/2000/svg">
<path d="M26 7.15476C26 10.5534 20.4036 13.3086 13.5 13.3086C6.59644 13.3086 1 10.5534 1 7.15476M26 7.15476C26 3.75609 20.4036 1.00092 13.5 1.00092C6.59644 1.00092 1 3.75609 1 7.15476M26 7.15476V17.0009M1 7.15476V17.0009M1 17.0009C1 20.4471 6.625 23.1548 13.5 23.1548C20.375 23.1548 26 20.4471 26 17.0009M1 17.0009V26.8471C1 30.2932 6.625 33.0009 13.5 33.0009C20.375 33.0009 26 30.2932 26 26.8471V17.0009" stroke="white" stroke-width="2" stroke-miterlimit="10" stroke-linecap="round" stroke-linejoin="round"/>
</svg>
