<svg width="15" height="16" viewBox="0 0 15 16" fill="none" xmlns="http://www.w3.org/2000/svg">
<path d="M14.9441 13.4354L11.7858 1.27419C11.5906 0.540835 10.9499 0.011016 10.1897 0.011016C10.0376 0.011016 9.89017 0.0319989 9.75033 0.0718665L9.76203 0.0692436L8.28943 0.476312C8.17248 0.510409 8.07129 0.552375 7.97519 0.603783L7.98434 0.599587C7.68229 0.233435 7.23584 0.00157372 6.73701 0H5.21204C4.82559 0.00157372 4.47117 0.141635 4.19201 0.374021L4.19506 0.371398C3.91895 0.141635 3.56453 0.00157372 3.17858 0H1.6526C0.740364 0.00104915 0.00101698 0.763778 0 1.70486V14.2946C0.00101698 15.2357 0.740364 15.9984 1.6526 15.9995H3.17807C3.56453 15.9979 3.91895 15.8584 4.19811 15.626L4.19506 15.6286C4.47117 15.8584 4.82559 15.9979 5.21153 16H6.7365C7.64873 15.999 8.38808 15.2362 8.3891 14.2951V7.44789L10.2792 14.7253C10.4734 15.4586 11.1136 15.9885 11.8738 15.9885C12.0263 15.9885 12.1738 15.967 12.3141 15.9271L12.3025 15.9297L13.7761 15.5232C14.4869 15.3207 15 14.6597 15 13.8755C15 13.7192 14.9797 13.5676 14.9415 13.4233L14.9441 13.4354ZM9.03895 4.88482L11.2489 4.2737L13.0255 11.1152L10.8161 11.7258L9.03895 4.88482ZM8.61843 1.74316L10.0905 1.33661C10.119 1.32874 10.152 1.32455 10.1861 1.32455C10.362 1.32455 10.511 1.44572 10.5578 1.61149L10.5583 1.61411L10.9204 3.00738L8.71046 3.6185L8.3891 2.38209V1.93725C8.4369 1.84335 8.51826 1.77358 8.61589 1.74316H8.61843ZM5.21204 1.31196H6.7365C6.946 1.3151 7.11482 1.48926 7.11787 1.70486V3.14744L4.83067 3.14796V1.70539C4.83372 1.48926 5.00254 1.3151 5.21153 1.31196H5.21204ZM3.55944 11.5411H1.27123V4.45939L3.55944 4.45887V11.5411ZM4.83067 4.45939L7.11787 4.45887V11.5411H4.83067V4.45939ZM1.6526 1.31196H3.17807C3.38757 1.3151 3.55639 1.48926 3.55944 1.70486V3.14744L1.27123 3.14796V1.70539C1.27428 1.48926 1.44361 1.3151 1.6526 1.31196ZM3.17807 14.6886H1.6526C1.4431 14.6854 1.27428 14.5113 1.27123 14.2957V12.8526H3.55944V14.2951C3.55639 14.5113 3.38706 14.6854 3.17807 14.6886ZM6.7365 14.6886H5.21204C5.00254 14.6854 4.83372 14.5113 4.83067 14.2957V12.8526H7.11787V14.2951C7.11482 14.5113 6.94549 14.6854 6.7365 14.6886ZM13.446 14.2574L11.9735 14.6639C11.9445 14.6718 11.9114 14.6765 11.8774 14.6765C11.8067 14.6765 11.7406 14.6571 11.6836 14.623L11.6857 14.624C11.5987 14.5721 11.5341 14.4882 11.5077 14.388L11.5072 14.3854L11.1456 12.9926L13.355 12.382L13.7171 13.7758C13.7247 13.8052 13.7288 13.8388 13.7288 13.8734C13.7288 14.0554 13.6108 14.2086 13.4496 14.2563L13.4471 14.2568L13.446 14.2574Z" fill="white"/>
</svg>
